<?xml version="1.0" encoding="UTF-8"?>
<svg version="1.1" xmlns="http://www.w3.org/2000/svg" width="1280" height="430">
<path d="M0 0 C422.4 0 844.8 0 1280 0 C1280 141.9 1280 283.8 1280 430 C857.6 430 435.2 430 0 430 C0 288.1 0 146.2 0 0 Z " fill="#EAEBE6" transform="translate(0,0)"/>
<path d="M0 0 C3.3 0 6.6 0 10 0 C10 4.95 10 9.9 10 15 C5.545 15.495 5.545 15.495 1 16 C0.67 23.92 0.34 31.84 0 40 C3.3 40 6.6 40 10 40 C10 32.08 10 24.16 10 16 C16.27 16 22.54 16 29 16 C29 23.92 29 31.84 29 40 C32.63 40 36.26 40 40 40 C40 32.08 40 24.16 40 16 C51.22 16 62.44 16 74 16 C74 89.26 74 162.52 74 238 C14.85753634 238.04030303 14.85753634 238.04030303 -9.84179688 238.04882812 C-15.48624677 238.05078613 -21.13069665 238.05280666 -26.77514648 238.05493164 C-27.48263139 238.05519539 -28.1901163 238.05545914 -28.91904014 238.05573088 C-40.35567059 238.06008565 -51.79229602 238.06797247 -63.22892349 238.0771528 C-74.95732671 238.08648914 -86.6857273 238.09205557 -98.41413409 238.09408849 C-105.00543844 238.09539605 -111.59673143 238.09848471 -118.18803215 238.10573006 C-124.38407625 238.11248614 -130.58010423 238.11461781 -136.77615166 238.11310768 C-139.05750109 238.1133842 -141.33885103 238.11539174 -143.6201973 238.11920547 C-146.72024268 238.1241363 -149.82022619 238.12300056 -152.92027283 238.12025452 C-153.83562378 238.12316736 -154.75097474 238.1260802 -155.6940636 238.12908131 C-161.88587879 238.11412121 -161.88587879 238.11412121 -163 237 C-163.097926 234.15529168 -163.12992493 231.33486096 -163.12025452 228.48973083 C-163.12110894 227.58641134 -163.12196337 226.68309184 -163.12284368 225.75239903 C-163.12450126 222.70136809 -163.1189726 219.65039117 -163.11352539 216.59936523 C-163.11324355 214.42190553 -163.11340119 212.24444573 -163.1139679 210.06698608 C-163.114256 204.13540803 -163.10835716 198.20385001 -163.10139394 192.27227664 C-163.09516258 186.08093793 -163.09455677 179.88959881 -163.09336853 173.69825745 C-163.09043182 162.63286153 -163.08320169 151.56747393 -163.07372581 140.50208182 C-163.06178151 126.48013616 -163.05559925 112.45819165 -163.05032361 98.43624198 C-163.03985775 70.95748934 -163.02205674 43.47874558 -163 16 C-151.78 16 -140.56 16 -129 16 C-129 24.25 -129 32.5 -129 41 C-125.37 41 -121.74 41 -118 41 C-118 32.75 -118 24.5 -118 16 C-111.73 16 -105.46 16 -99 16 C-99 23.92 -99 31.84 -99 40 C-95.7 40 -92.4 40 -89 40 C-89.33 32.08 -89.66 24.16 -90 16 C-92.64 15.67 -95.28 15.34 -98 15 C-98 10.38 -98 5.76 -98 1 C-95.03 1 -92.06 1 -89 1 C-89 5.62 -89 10.24 -89 15 C-59.63 15 -30.26 15 0 15 C0 10.05 0 5.1 0 0 Z " fill="#70BEA8" transform="translate(237,92)"/>
<path d="M0 0 C5.71424697 1.71427409 11.42482135 3.42893425 17.125 5.1875 C18.24132812 5.53167969 19.35765625 5.87585938 20.5078125 6.23046875 C21.33023438 6.48441406 22.15265625 6.73835937 23 7 C23.11646305 17.44956146 23.20500167 27.89896549 23.25906086 38.34904671 C23.28502234 43.20282233 23.32017079 48.05615004 23.37719727 52.90966797 C23.43200172 57.60408734 23.46152134 62.29807915 23.47438622 66.99279404 C23.48354004 68.77316889 23.50141237 70.55352351 23.52865028 72.33371353 C23.7578163 87.94937618 21.44105061 102.13890264 10.15625 113.92578125 C-0.57049972 123.86505133 -11.62834804 126.71498904 -25.98828125 126.3125 C-35.35122413 125.77811087 -43.08312396 122.21400642 -50 116 C-50.52722656 115.52949219 -51.05445313 115.05898438 -51.59765625 114.57421875 C-53 113.25 -53 113.25 -55 111 C-55 110.34 -55 109.68 -55 109 C-55.99 108.67 -56.98 108.34 -58 108 C-64.70126266 96.69161926 -66.61748726 84.3213182 -64.375 71.375 C-61.69241017 61.09803614 -54.86983256 50.91322171 -46 45 C-37.39926243 40.61505513 -30.45621269 38.8012011 -20.875 38.6875 C-19.68777344 38.64399414 -19.68777344 38.64399414 -18.4765625 38.59960938 C-11.05588501 38.52181195 -7.67109612 40.2105105 0 43 C0 28.81 0 14.62 0 0 Z " fill="#586B8E" transform="translate(851,148)"/>
<path d="M0 0 C7.59 0 15.18 0 23 0 C23 28.71 23 57.42 23 87 C15.41 87 7.82 87 0 87 C0 86.01 0 85.02 0 84 C-0.57363281 84.28875 -1.14726563 84.5775 -1.73828125 84.875 C-12.48298956 89.57071471 -25.63061598 90.00508089 -36.6875 86 C-38.13946486 85.3654539 -39.58463422 84.71245379 -41 84 C-41 83.34 -41 82.68 -41 82 C-41.53625 81.9175 -42.0725 81.835 -42.625 81.75 C-48.67446758 79.83964182 -51.75924511 76.25225793 -55 71 C-55.47824219 70.55785156 -55.95648437 70.11570312 -56.44921875 69.66015625 C-58.4798397 67.4863177 -59.43366361 65.21887814 -60.625 62.5 C-61.26308594 61.06140625 -61.26308594 61.06140625 -61.9140625 59.59375 C-65.6910345 50.57249313 -65.51321885 38.04485337 -62.375 28.8125 C-57.47908106 17.71964871 -48.30158763 7.77137722 -37.01293945 3.19433594 C-31.45181003 1.19599256 -26.51862305 0.49007452 -20.625 0.5625 C-19.38979614 0.56733398 -19.38979614 0.56733398 -18.12963867 0.57226562 C-11.54334629 0.72238055 -5.92295646 2.01855675 0 5 C0 3.35 0 1.7 0 0 Z " fill="#576A8F" transform="translate(1115,186)"/>
<path d="M0 0 C3.15571788 2.10736326 6.15696514 4.39488092 9.14453125 6.734375 C10.13453125 7.394375 11.12453125 8.054375 12.14453125 8.734375 C11.56616669 12.88264491 9.2837104 15.47977416 6.76953125 18.734375 C5.97804688 19.765625 5.1865625 20.796875 4.37109375 21.859375 C3.63632812 22.808125 2.9015625 23.756875 2.14453125 24.734375 C1.14173087 26.06560345 0.14041446 27.39796398 -0.85546875 28.734375 C-4.35454045 27.44912722 -7.24346759 25.93315656 -10.29296875 23.796875 C-18.33789515 18.32685871 -25.16775701 15.52845943 -35.046875 17.078125 C-37.49833848 17.56443647 -37.49833848 17.56443647 -40.85546875 18.734375 C-42.09906881 22.46517519 -42.50049263 25.8642317 -41.85546875 29.734375 C-37.76066807 35.54635015 -31.29573304 37.44934836 -24.875 39.84765625 C4.9995704 51.01878063 4.9995704 51.01878063 12.36816406 64.62402344 C13.97387057 68.98871748 13.75749587 73.51412652 13.70703125 78.109375 C13.74280273 79.594375 13.74280273 79.594375 13.77929688 81.109375 C13.75996468 90.8785763 9.77761882 97.77772219 3.14453125 104.734375 C-2.11862664 108.734375 -2.11862664 108.734375 -5.85546875 108.734375 C-5.85546875 109.394375 -5.85546875 110.054375 -5.85546875 110.734375 C-19.00853729 116.51140903 -34.37203151 116.79739671 -47.85546875 111.734375 C-56.69755152 108.03303803 -64.08968649 103.60470577 -70.85546875 96.734375 C-71.71591797 95.87585938 -71.71591797 95.87585938 -72.59375 95 C-73.01011719 94.58234375 -73.42648437 94.1646875 -73.85546875 93.734375 C-72.55224079 90.91219113 -71.12013266 88.68382347 -69.0703125 86.3515625 C-68.53986328 85.74183594 -68.00941406 85.13210937 -67.46289062 84.50390625 C-66.6362793 83.56611328 -66.6362793 83.56611328 -65.79296875 82.609375 C-64.69610135 81.35836015 -63.60096481 80.10582495 -62.5078125 78.8515625 C-62.02304443 78.30097168 -61.53827637 77.75038086 -61.03881836 77.18310547 C-59.7591369 75.72459763 -59.7591369 75.72459763 -58.85546875 73.734375 C-58.19546875 73.734375 -57.53546875 73.734375 -56.85546875 73.734375 C-55.6640625 75.2734375 -55.6640625 75.2734375 -54.29296875 77.359375 C-49.43222458 84.04141991 -41.98928823 88.97253684 -33.85546875 90.734375 C-26.84083688 91.47492265 -21.21461674 90.796187 -14.85546875 87.734375 C-14.52546875 87.074375 -14.19546875 86.414375 -13.85546875 85.734375 C-13.19546875 85.734375 -12.53546875 85.734375 -11.85546875 85.734375 C-11.82838308 84.13030172 -11.80903392 82.5260965 -11.79296875 80.921875 C-11.78136719 80.02855469 -11.76976562 79.13523437 -11.7578125 78.21484375 C-11.74536908 75.60023709 -11.74536908 75.60023709 -12.85546875 72.734375 C-14.49581068 72.00533414 -16.16848793 71.34782257 -17.85546875 70.734375 C-18.61859375 70.25871094 -19.38171875 69.78304687 -20.16796875 69.29296875 C-22.95134961 67.67876968 -25.53582515 66.74294241 -28.60546875 65.796875 C-33.87813632 64.09309992 -38.87906793 62.16808927 -43.85546875 59.734375 C-44.5825 59.38890625 -45.30953125 59.0434375 -46.05859375 58.6875 C-55.14653457 54.04820154 -63.27428003 47.58769061 -67.0703125 37.88671875 C-69.21674322 29.26895958 -69.37252184 20.60456145 -65.16796875 12.609375 C-64.10807935 10.9551551 -63.00774919 9.32561942 -61.85546875 7.734375 C-61.4378125 7.13109375 -61.02015625 6.5278125 -60.58984375 5.90625 C-46.99228035 -12.04253369 -17.74654729 -11.04066858 0 0 Z " fill="#586A8F" transform="translate(470.85546875,159.265625)"/>
<path d="M0 0 C1.66441908 0.6722584 3.33048052 1.3405101 5 2 C5 2.66 5 3.32 5 4 C5.680625 4.165 6.36125 4.33 7.0625 4.5 C15.1754685 8.64279243 21.06131611 18.46641285 23.8125 26.9375 C25 33 25 33 25 50 C4.87 50 -15.26 50 -36 50 C-31.88412952 55.1448381 -28.92428662 58.47285702 -22.3828125 59.3515625 C-16.26110387 59.53809656 -11.51544155 58.65558297 -6 56 C-5.505 55.01 -5.505 55.01 -5 54 C-2 54 -2 54 0.125 55.9375 C1.08362127 56.95806295 2.04189428 57.97895303 3 59 C4.60012766 60.60819553 6.20455142 62.21212418 7.8125 63.8125 C9.20833333 65.20833333 10.60416667 66.60416667 12 68 C8.24562818 76.06184307 -0.4763684 79.24080993 -8.375 82.3125 C-20.56334002 84.62408173 -32.96078391 82.64859699 -43.4375 75.8125 C-48.19484059 72.1722361 -51.60856008 67.89673144 -55 63 C-55.7425 62.071875 -56.485 61.14375 -57.25 60.1875 C-62.58773025 50.46520561 -63.83875555 38.24061075 -61.12109375 27.5390625 C-56.58230361 14.68664687 -48.26891094 5.30643853 -36.23046875 -0.96484375 C-24.57637826 -6.3734847 -11.46194002 -5.18246133 0 0 Z " fill="#56698F" transform="translate(750,191)"/>
<path d="M0 0 C0 13.53 0 27.06 0 41 C2.64 40.01 5.28 39.02 8 38 C20.0649745 36.62345929 30.20516842 38.94008892 40 46 C41.03125 46.721875 42.0625 47.44375 43.125 48.1875 C49.53845261 53.74466058 54.47366113 63.38947892 55.26271057 71.80036926 C55.34575014 75.06888677 55.33737721 78.32447871 55.29296875 81.59375 C55.28872391 82.78101685 55.28447906 83.96828369 55.28010559 85.19152832 C55.26339339 88.9612554 55.22575381 92.73043612 55.1875 96.5 C55.17244358 99.06509641 55.15875685 101.63020126 55.14648438 104.1953125 C55.1135141 110.46375026 55.06178237 116.73178268 55 123 C47.41 123 39.82 123 32 123 C31.97421875 119.38804687 31.9484375 115.77609375 31.921875 112.0546875 C31.8834434 108.54972599 31.83828653 105.04491103 31.79248047 101.54003906 C31.76428549 99.10749325 31.74306368 96.67485608 31.72900391 94.2421875 C31.70755492 90.74171218 31.66089157 87.24233369 31.609375 83.7421875 C31.60814636 82.65759247 31.60691772 81.57299744 31.60565186 80.45553589 C31.48750881 74.34063753 31.09139011 70.65543742 27 66 C22.99862627 62.65387306 18.96113135 61.69419254 13.8125 62.0625 C9.94669124 62.66727376 7.00251077 63.36142993 4 66 C0.22082439 71.63091966 0.52680911 77.202653 0.48828125 83.7421875 C0.47033005 84.86569611 0.45237885 85.98920471 0.43388367 87.14675903 C0.37985386 90.72280159 0.34590754 94.29871119 0.3125 97.875 C0.27932056 100.30470597 0.24483033 102.73439441 0.20898438 105.1640625 C0.12167248 111.10939339 0.06153834 117.05412327 0 123 C-7.59 123 -15.18 123 -23 123 C-23 84.39 -23 45.78 -23 6 C-20.03 5.01 -17.06 4.02 -14 3 C-13.11828125 2.68675781 -12.2365625 2.37351563 -11.328125 2.05078125 C-10.64234375 1.80714844 -9.9565625 1.56351563 -9.25 1.3125 C-8.55390625 1.06113281 -7.8578125 0.80976563 -7.140625 0.55078125 C-5 0 -5 0 0 0 Z " fill="#586A8E" transform="translate(618,150)"/>
<path d="M0 0 C7.59 0 15.18 0 23 0 C23.02578125 3.75632813 23.0515625 7.51265625 23.078125 11.3828125 C23.11655353 15.02676847 23.16171142 18.67058334 23.20751953 22.31445312 C23.23571932 24.84400683 23.25693873 27.37364849 23.27099609 29.90332031 C23.29243829 33.54277546 23.3390986 37.18117415 23.390625 40.8203125 C23.39185364 41.94865509 23.39308228 43.07699768 23.39434814 44.23953247 C23.50991544 50.45579006 23.79428226 54.29479313 28 59 C31.2980795 61.84834139 33.74334682 63.24485602 38.0625 63.375 C43.69683003 62.83839714 46.42301437 61.99804874 50.09814453 57.6796875 C54.03763958 52.28342433 53.85746004 47.11292504 53.8046875 40.625 C53.81839386 39.4599292 53.83210022 38.2948584 53.84622192 37.09448242 C53.88342719 33.39592542 53.8798129 29.69871712 53.875 26 C53.89313316 23.48305202 53.91393778 20.96612177 53.9375 18.44921875 C53.99426158 12.29869648 53.9957516 6.15167602 54 0 C61.59 0 69.18 0 77 0 C77.04607534 7.08024343 77.08585258 14.15996013 77.10986328 21.24023438 C77.11987994 23.64552581 77.13349709 26.0508052 77.15087891 28.45605469 C77.1753184 31.92646267 77.18652679 35.39670872 77.1953125 38.8671875 C77.20563507 39.93113739 77.21595764 40.99508728 77.22659302 42.09127808 C77.22840678 54.34176072 74.80109929 64.71723703 68 75 C64.92341535 77.91619398 61.726319 80.00441759 58 82 C56.88625 82.639375 55.7725 83.27875 54.625 83.9375 C52 85 52 85 48 85 C48 85.66 48 86.32 48 87 C34.81363312 87.71064253 23.52088471 87.03600941 13 78 C4.66751582 70.17251486 -0.09028945 60.9391303 -0.56762695 49.38354492 C-0.56685114 47.08236766 -0.53955835 44.78107476 -0.48828125 42.48046875 C-0.48120651 41.25588455 -0.47413177 40.03130035 -0.46684265 38.76960754 C-0.43914524 34.90824886 -0.37645033 31.04841071 -0.3125 27.1875 C-0.28738542 24.54884926 -0.26457785 21.91017549 -0.24414062 19.27148438 C-0.18939898 12.84708203 -0.10329693 6.42379761 0 0 Z " fill="#586B8E" transform="translate(894,187)"/>
<path d="M0 0 C2.3125 0.1875 2.3125 0.1875 5 1 C6.02137457 2.65365406 7.01612294 4.32376502 8 6 C10.05557661 7.90406997 12.18121427 9.68239214 14.35546875 11.44921875 C15.16951172 12.21685547 15.16951172 12.21685547 16 13 C16 13.66 16 14.32 16 15 C16.66 15 17.32 15 18 15 C20.5765427 17.37313144 22.84443183 19.80067829 25 22.5625 C27.104689 25.12758972 29.35227996 27.01420997 32 29 C31 32 31 32 29 33 C28.67 33.99 28.34 34.98 28 36 C26.63751775 36.88561346 25.27235163 37.76734947 23.89453125 38.62890625 C19.20991325 42.01921742 13.84998152 46.45005544 12 52 C10 53.33333333 8 54.66666667 6 56 C4.64172029 57.64639965 3.30745749 59.31295807 2 61 C1.113125 61.70125 0.22625 62.4025 -0.6875 63.125 C-3.25247789 64.86120977 -3.25247789 64.86120977 -4 68 C-5.36739345 68.85462091 -6.7352733 69.70847249 -8.10546875 70.55859375 C-12.59918056 73.97752088 -17.46150386 78.92300773 -20 84 C-20.66 84 -21.32 84 -22 84 C-22.37125 84.928125 -22.37125 84.928125 -22.75 85.875 C-24.20628639 88.35068687 -25.37812506 88.95125002 -28 90 C-28 90.66 -28 91.32 -28 92 C-29.75 92.7265625 -29.75 92.7265625 -32 93 C-34 91.5234375 -34 91.5234375 -36 89.375 C-36.99 88.33472656 -36.99 88.33472656 -38 87.2734375 C-39.36757947 85.71888428 -40.68011318 84.11462127 -41.94140625 82.47265625 C-44.08013562 79.90374602 -46.27272949 78.0703163 -48.9375 76.0625 C-52.89625263 72.98411798 -55.92745024 69.93670438 -59 66 C-59.66 65.67 -60.32 65.34 -61 65 C-60.4335018 61.26777655 -58.93650077 59.5855045 -56.25 57 C-55.52683594 56.30003906 -54.80367187 55.60007813 -54.05859375 54.87890625 C-52 53 -52 53 -49.3125 50.9375 C-46.67729234 48.72962331 -45.04948786 46.36949943 -43.2109375 43.48828125 C-42 42 -42 42 -39 41 C-38.67 40.01 -38.34 39.02 -38 38 C-36.01399663 36.6459068 -34.01182457 35.31542376 -32 34 C-29.44073042 31.62353539 -27.18101204 29.22626505 -25 26.5 C-22.83329484 23.79161854 -20.45252812 21.45252812 -18 19 C-16.84788401 17.67209166 -15.7024774 16.33834351 -14.5625 15 C-12.4600342 12.56460577 -10.39086888 10.37993407 -7.875 8.375 C-4.7601153 5.80183438 -2.4982184 3.15951151 0 0 Z " fill="#E9EBE5" transform="translate(206,174)"/>
<path d="M0 0 C0.62519531 0.28875 1.25039063 0.5775 1.89453125 0.875 C7.0400304 3.38609326 10.66060991 7.4059803 14 12 C14.495 13.485 14.495 13.485 15 15 C2.51480638 23.44646925 2.51480638 23.44646925 -4 27 C-4.70125 26.401875 -5.4025 25.80375 -6.125 25.1875 C-12.70012466 20.18468776 -17.86174294 19.14708223 -26 20 C-31.71348703 21.2815298 -34.70561938 24.38786713 -38 29 C-41.01711363 33.99311059 -40.70085982 39.35064508 -40 45 C-37.73687685 51.18526884 -34.60247612 55.04437011 -28.8125 58.1875 C-21.96211878 60.16649902 -16.36387254 59.26731053 -10.01953125 56.15625 C-7.44679285 54.68327018 -5.1981923 52.98546401 -3 51 C-2.01 51.495 -2.01 51.495 -1 52 C-1 52.66 -1 53.32 -1 54 C-0.01 54.3403125 -0.01 54.3403125 1 54.6875 C4.88658628 56.3878815 8.63679817 58.39623084 12 61 C12 61.66 12 62.32 12 63 C13.485 63.495 13.485 63.495 15 64 C11.89176297 69.22183821 7.84697629 74.84184341 1.78125 76.66796875 C0.89953125 76.83232422 0.89953125 76.83232422 0 77 C0 77.66 0 78.32 0 79 C-11.83283339 84.19716604 -24.86510338 85.27489321 -37.125 80.875 C-48.79331474 75.62719011 -57.30788051 67.02502984 -62 55 C-65.45052649 45.57513335 -65.88906393 31.88856348 -62.4375 22.4375 C-56.72913305 10.84175809 -46.78110639 1.47939544 -34.67578125 -3.15234375 C-23.49839166 -5.72991393 -10.09650697 -5.89816229 0 0 Z " fill="#586A8E" transform="translate(564,191)"/>
<path d="M0 0 C0.02887236 3.81248426 0.04675492 7.6249407 0.0625 11.4375 C0.07087891 12.52611328 0.07925781 13.61472656 0.08789062 14.73632812 C0.09111328 15.77080078 0.09433594 16.80527344 0.09765625 17.87109375 C0.10289307 18.82943115 0.10812988 19.78776855 0.11352539 20.77514648 C0 23 0 23 -1 24 C-3.47511803 24.53650099 -5.96281184 24.96392114 -8.45703125 25.40234375 C-15.99060351 27.17290682 -19.94797476 32.61918895 -23.984375 38.83984375 C-26.55606186 44.30962389 -26.20198034 50.62639777 -26.31640625 56.5546875 C-26.33718735 57.45623566 -26.35796844 58.35778381 -26.37937927 59.28665161 C-26.4444458 62.1493614 -26.50355914 65.01215819 -26.5625 67.875 C-26.60572607 69.82292544 -26.64934164 71.77084229 -26.69335938 73.71875 C-26.80081144 78.47907904 -26.90020319 83.23947976 -27 88 C-34.59 88 -42.18 88 -50 88 C-50.1156125 81.56166831 -50.21490037 75.12702438 -50.2746582 68.68847656 C-50.29960124 66.50443227 -50.33356835 64.32046969 -50.37719727 62.13671875 C-50.72825449 44.09650728 -49.44746151 30.14585842 -37 16 C-26.87120123 5.66200057 -14.79458957 -0.5283782 0 0 Z " fill="#576A8E" transform="translate(1043,185)"/>
<path d="M0 0 C5.1058117 2.27938022 8.77036351 6.46588493 12 11 C14.04021328 17.12063983 14.09323014 24.49048038 11.4375 30.4375 C8.4924277 35.44308225 4.2558023 37.99208833 -0.9375 40.3125 C-8.41816254 41.99183241 -13.11769277 41.12495255 -19.796875 37.48828125 C-24.6004694 34.24329993 -26.7056675 29.50091315 -28 24 C-28.80166763 17.47734063 -27.84168934 12.39721999 -24 7 C-16.93156357 -0.44642769 -9.89867196 -0.91141618 0 0 Z " fill="#E8EAE6" transform="translate(1102,210)"/>
<path d="M0 0 C1.97593491 0.94565227 3.7699669 1.98769801 5.59765625 3.19140625 C6.36078125 3.62453125 7.12390625 4.05765625 7.91015625 4.50390625 C12.36428419 8.95803419 12.8208574 13.70265215 12.97265625 19.75390625 C12.86912429 24.74644727 12.41995583 28.0755527 9.59765625 32.19140625 C8.93765625 32.19140625 8.27765625 32.19140625 7.59765625 32.19140625 C7.33855469 32.805 7.07945312 33.41859375 6.8125 34.05078125 C4.72366882 37.73142269 1.5360737 38.95070932 -2.40234375 40.19140625 C-8.74044266 41.00720116 -13.91163695 40.7529458 -19.40234375 37.19140625 C-19.40234375 36.53140625 -19.40234375 35.87140625 -19.40234375 35.19140625 C-20.26859375 34.91296875 -20.26859375 34.91296875 -21.15234375 34.62890625 C-25.21038892 32.03626628 -26.90381693 27.68698671 -28.40234375 23.19140625 C-29.14606307 16.12607266 -27.52981064 11.0047399 -23.40234375 5.19140625 C-16.97226401 -1.42239006 -8.7237957 -2.93630197 0 0 Z " fill="#E8EAE6" transform="translate(837.40234375,210.80859375)"/>
<path d="M0 0 C7.71484375 -0.09765625 7.71484375 -0.09765625 10 0 C13.54338194 3.54338194 11 9.98890121 11 15 C22.55 15 34.1 15 46 15 C46 88.26 46 161.52 46 237 C45.67 237 45.34 237 45 237 C45 164.07 45 91.14 45 16 C33.78 16 22.56 16 11 16 C11 23.92 11 31.84 11 40 C7.37 40 3.74 40 0 40 C0 32.08 0 24.16 0 16 C-6.27 16 -12.54 16 -19 16 C-19 23.92 -19 31.84 -19 40 C-22.3 40 -25.6 40 -29 40 C-29.02886984 36.02084841 -29.04675406 32.04172347 -29.0625 28.0625 C-29.07087891 26.92619141 -29.07925781 25.78988281 -29.08789062 24.61914062 C-29.09111328 23.53955078 -29.09433594 22.45996094 -29.09765625 21.34765625 C-29.10289307 20.34742432 -29.10812988 19.34719238 -29.11352539 18.31665039 C-29 16 -29 16 -28 15 C-25.92737924 14.91232888 -23.85179706 14.89304127 -21.77734375 14.90234375 C-20.51728516 14.90556641 -19.25722656 14.90878906 -17.95898438 14.91210938 C-16.61848891 14.92046597 -15.27799412 14.92893093 -13.9375 14.9375 C-12.59310058 14.9425134 -11.2486994 14.94707658 -9.90429688 14.95117188 C-6.60284567 14.96300503 -3.3014174 14.98094114 0 15 C0 10.05 0 5.1 0 0 Z " fill="#BEE2D4" transform="translate(266,92)"/>
<path d="M0 0 C4.28908234 0.4765647 6.18274549 2.90789139 9 6 C9.70125 6.9075 10.4025 7.815 11.125 8.75 C13.54504058 11.73675895 16.37082636 13.98643572 19.375 16.375 C24.0851802 20.14186942 28.51305117 24.03734587 32 29 C32 29.66 32 30.32 32 31 C30.42578125 32.55078125 30.42578125 32.55078125 28.3125 34.3125 C25.04699036 37.08499308 21.98084015 39.92600859 19 43 C15.48661099 41.5123488 13.35816742 39.50827778 10.75 36.75 C7.85702396 33.77109398 5.01285126 31.15024886 1.625 28.75 C-1.54546521 26.47824934 -3.1055979 24.44436745 -5 21 C-6.0665784 19.98214853 -7.15140915 18.98321373 -8.25 18 C-10.9663656 15.34475263 -10.9663656 15.34475263 -11.25 12.4375 C-9.82635682 9.6613958 -8.03269202 8.1415313 -5.56640625 6.26953125 C-3.33877366 4.46409336 -1.70247182 2.29178899 0 0 Z " fill="#E5EBE5" transform="translate(227,153)"/>
<path d="M0 0 C7.71484375 -0.09765625 7.71484375 -0.09765625 10 0 C11 1 11 1 11.09765625 4.16015625 C11.06510417 7.7734375 11.03255208 11.38671875 11 15 C17.27 15 23.54 15 30 15 C30 10.05 30 5.1 30 0 C33.3 0 36.6 0 40 0 C40 0.33 40 0.66 40 1 C37.03 1 34.06 1 31 1 C31 5.62 31 10.24 31 15 C32.299375 14.979375 33.59875 14.95875 34.9375 14.9375 C36.29165633 14.91600546 37.64756083 14.92851801 39 15 C40 16 40 16 40.11352539 18.31665039 C40.10567017 19.81699829 40.10567017 19.81699829 40.09765625 21.34765625 C40.09282227 22.96704102 40.09282227 22.96704102 40.08789062 24.61914062 C40.07532227 26.32360352 40.07532227 26.32360352 40.0625 28.0625 C40.05798828 29.20267578 40.05347656 30.34285156 40.04882812 31.51757812 C40.03699747 34.34510351 40.0205141 37.1725264 40 40 C36.7 40 33.4 40 30 40 C30 32.08 30 24.16 30 16 C23.73 16 17.46 16 11 16 C11 24.25 11 32.5 11 41 C7.37 41 3.74 41 0 41 C0 32.75 0 24.5 0 16 C-10.89 16 -21.78 16 -33 16 C-33 15.67 -33 15.34 -33 15 C-22.11 15 -11.22 15 0 15 C0 10.05 0 5.1 0 0 Z " fill="#B0D6C8" transform="translate(108,92)"/>
<path d="M0 0 C1.32 0 2.64 0 4 0 C5.38442 1.96498322 6.71203834 3.97048465 8 6 C10.27227054 8.00176215 12.29666103 9.64833052 15 11 C15.433125 11.7425 15.86625 12.485 16.3125 13.25 C18.60634043 16.98811034 21.6207601 19.7158801 24.8125 22.6875 C26 24 26 24 26 26 C-1.40549828 37 -1.40549828 37 -11 37 C-11.31506949 32.69405035 -10.66747047 29.79397857 -8.8515625 25.890625 C-5.69136236 18.87440084 -3.9047884 11.23597653 -1.8671875 3.84375 C-1 1 -1 1 0 0 Z " fill="#E7EBE5" transform="translate(139,246)"/>
<path d="M0 0 C3.3 0 6.6 0 10 0 C10 4.95 10 9.9 10 15 C5.545 15.495 5.545 15.495 1 16 C0.67 23.92 0.34 31.84 0 40 C-0.33 40 -0.66 40 -1 40 C-1 32.08 -1 24.16 -1 16 C-29.71 16 -58.42 16 -88 16 C-88 23.92 -88 31.84 -88 40 C-88.33 40 -88.66 40 -89 40 C-89.33 32.08 -89.66 24.16 -90 16 C-92.64 15.67 -95.28 15.34 -98 15 C-98 10.38 -98 5.76 -98 1 C-95.03 1 -92.06 1 -89 1 C-89 5.62 -89 10.24 -89 15 C-59.63 15 -30.26 15 0 15 C0 10.05 0 5.1 0 0 Z " fill="#A3CDBF" transform="translate(237,92)"/>
<path d="M0 0 C0.66 0 1.32 0 2 0 C2.4125 0.70125 2.825 1.4025 3.25 2.125 C5.09117594 5.14978904 7.11103662 7.19175012 9.6953125 9.5703125 C11 11 11 11 12 14 C13.51239786 15.31017517 15.08470872 16.55209919 16.6875 17.75 C21.09341555 21.16347833 24.54717918 24.63854212 28 29 C21.25 27.375 21.25 27.375 19 24 C18.22757731 25.83700789 18.22757731 25.83700789 18 28 C19.39588754 29.64594139 19.39588754 29.64594139 21 31 C21 31.66 21 32.32 21 33 C21.66 33 22.32 33 23 33 C24.66730236 35.54999184 25.00952602 36.85075905 24.8125 39.9375 C23.70908888 44.09651115 22.03378768 46.96621232 19 50 C16.67724823 50.40047444 14.34260643 50.7397104 12 51 C15.44615385 46.2 15.44615385 46.2 18.25 45.1875 C18.8275 45.125625 19.405 45.06375 20 45 C20.12375 44.360625 20.2475 43.72125 20.375 43.0625 C20.684375 42.0415625 20.684375 42.0415625 21 41 C21.99 40.505 21.99 40.505 23 40 C20.9236311 34.90345816 16.88117476 31.68330241 12.6875 28.3125 C11.800625 27.549375 10.91375 26.78625 10 26 C10 25.34 10 24.68 10 24 C9.34 24 8.68 24 8 24 C3.23255814 19.69767442 3.23255814 19.69767442 2 16 C1.01 15.67 0.02 15.34 -1 15 C-0.34 13.68 0.32 12.36 1 11 C0.34 11 -0.32 11 -1 11 C-0.67 9.68 -0.34 8.36 0 7 C0.99 7 1.98 7 3 7 C3 6.34 3 5.68 3 5 C2.01 4.67 1.02 4.34 0 4 C0 2.68 0 1.36 0 0 Z " fill="#76BFA8" transform="translate(214,165)"/>
<path d="M0 0 C20.13 0 40.26 0 61 0 C61 0.33 61 0.66 61 1 C42.52 1 24.04 1 5 1 C6.0428336 2.27023396 6.0428336 2.27023396 8.36083984 2.08178711 C9.38387207 2.0638208 10.4069043 2.04585449 11.4609375 2.02734375 C12.57210937 2.01509766 13.68328125 2.00285156 14.828125 1.99023438 C17.18495906 1.95519334 19.54173724 1.91615725 21.8984375 1.87304688 C23.5690625 1.85661133 23.5690625 1.85661133 25.2734375 1.83984375 C26.29872559 1.82300537 27.32401367 1.80616699 28.38037109 1.78881836 C31 2 31 2 34 4 C33.01 4 32.02 4 31 4 C30.67 4.99 30.34 5.98 30 7 C23.85858036 10.07070982 17.8219996 11.20786112 11 10 C5.71207833 7.57571544 2.61720457 5.23440913 0 0 Z " fill="#D7DCDE" transform="translate(714,241)"/>
<path d="M0 0 C7.59 0 15.18 0 23 0 C23 28.71 23 57.42 23 87 C22.34 87 21.68 87 21 87 C21 59.28 21 31.56 21 3 C15.72 3 10.44 3 5 3 C4.67 3.66 4.34 4.32 4 5 C1.9375 5.625 1.9375 5.625 0 6 C0 4.02 0 2.04 0 0 Z " fill="#778296" transform="translate(1115,186)"/>
<path d="M0 0 C2.63842987 1.34904067 4.48786873 2.75085793 6.24609375 5.1484375 C6.24609375 5.8084375 6.24609375 6.4684375 6.24609375 7.1484375 C-4.97390625 7.1484375 -16.19390625 7.1484375 -27.75390625 7.1484375 C-26.55055812 3.5383931 -25.51038697 3.04015162 -22.37890625 1.0234375 C-21.58742188 0.50523437 -20.7959375 -0.01296875 -19.98046875 -0.546875 C-13.11648042 -4.56893132 -6.90019849 -2.96172903 0 0 Z " fill="#D9E3F0" transform="translate(741.75390625,211.8515625)"/>
<path d="M0 0 C2.97 0 5.94 0 9 0 C9 7.92 9 15.84 9 24 C6.03 24 3.06 24 0 24 C0 16.08 0 8.16 0 0 Z " fill="#E9ECE6" transform="translate(139,108)"/>
<path d="M0 0 C2.97 0 5.94 0 9 0 C9 7.92 9 15.84 9 24 C6.03 24 3.06 24 0 24 C0 16.08 0 8.16 0 0 Z " fill="#E2EAE4" transform="translate(267,108)"/>
<path d="M0 0 C2.64 0 5.28 0 8 0 C8 7.59 8 15.18 8 23 C5.36 23 2.72 23 0 23 C0 15.41 0 7.82 0 0 Z " fill="#E4EDE5" transform="translate(110,108)"/>
<path d="M0 0 C2.64 0 5.28 0 8 0 C8 7.59 8 15.18 8 23 C5.36 23 2.72 23 0 23 C0 15.41 0 7.82 0 0 Z " fill="#E5EEE7" transform="translate(238,108)"/>
<path d="M0 0 C2.97 0 5.94 0 9 0 C9 4.62 9 9.24 9 14 C6.03 14 3.06 14 0 14 C0 9.38 0 4.76 0 0 Z " fill="#80BBA7" transform="translate(139,93)"/>
<path d="M0 0 C2.97 0 5.94 0 9 0 C9 4.62 9 9.24 9 14 C6.03 14 3.06 14 0 14 C0 9.38 0 4.76 0 0 Z " fill="#7BBCA7" transform="translate(267,93)"/>
<path d="M0 0 C2.97 0 5.94 0 9 0 C9 4.62 9 9.24 9 14 C6.03 14 3.06 14 0 14 C0 9.38 0 4.76 0 0 Z " fill="#7BBCA8" transform="translate(109,93)"/>
<path d="M0 0 C0.763125 -0.00773438 1.52625 -0.01546875 2.3125 -0.0234375 C6.18281054 -0.00985746 8.08559323 0.05706215 11.375 2.25 C11.045 2.58 10.715 2.91 10.375 3.25 C3.445 3.25 -3.485 3.25 -10.625 3.25 C-10.625 19.42 -10.625 35.59 -10.625 52.25 C-10.955 52.25 -11.285 52.25 -11.625 52.25 C-11.955 37.73 -12.285 23.21 -12.625 8.25 C-12.955 8.25 -13.285 8.25 -13.625 8.25 C-13.625 6.27 -13.625 4.29 -13.625 2.25 C-9.05404602 -0.04458248 -4.9927185 -0.05111998 0 0 Z " fill="#DEE4ED" transform="translate(904.625,183.75)"/>
<path d="M0 0 C2.64 0 5.28 0 8 0 C8 4.62 8 9.24 8 14 C5.36 14 2.72 14 0 14 C0 9.38 0 4.76 0 0 Z " fill="#78BBA5" transform="translate(238,93)"/>
<path d="M0 0 C5.8845041 3.94291645 10.05708355 8.1154959 14 14 C11.525 13.505 11.525 13.505 9 13 C9 12.34 9 11.68 9 11 C7.68 10.67 6.36 10.34 5 10 C4.67 10.99 4.34 11.98 4 13 C4.66 13 5.32 13 6 13 C6.66 15.31 7.32 17.62 8 20 C6.2925002 18.71937515 4.62626404 17.38232443 3 16 C3 15.34 3 14.68 3 14 C2.071875 13.566875 2.071875 13.566875 1.125 13.125 C-1 12 -1 12 -3 10 C-3 9.01 -3 8.02 -3 7 C-4.2065625 6.566875 -4.2065625 6.566875 -5.4375 6.125 C-8 5 -8 5 -9 3 C-4.94718288 4.22527029 -1.55639236 5.69880494 2 8 C2 4.79604584 1.25664978 2.90600261 0 0 Z " fill="#84C0AE" transform="translate(157,250)"/>
<path d="M0 0 C0 0.33 0 0.66 0 1 C-0.99 1.33 -1.98 1.66 -3 2 C-1.02 2.66 0.96 3.32 3 4 C2 7 2 7 0 8 C-2.71262116 8.2322646 -5.40773126 8.41936235 -8.125 8.5625 C-8.87910156 8.60568359 -9.63320313 8.64886719 -10.41015625 8.69335938 C-12.27321888 8.7994832 -14.13658524 8.90025001 -16 9 C-16.33 8.01 -16.66 7.02 -17 6 C-11.31032436 1.12313516 -7.52676821 -0.29516738 0 0 Z " fill="#E1E6E0" transform="translate(734,209)"/>
<path d="M0 0 C0.33 0.99 0.66 1.98 1 3 C1.66 3.33 2.32 3.66 3 4 C2.67 4.33 2.34 4.66 2 5 C1.91725549 6.48753322 1.90359532 7.97898892 1.91821289 9.46875 C1.9247438 10.42064209 1.93127472 11.37253418 1.93800354 12.35327148 C1.94943893 13.39169189 1.96087433 14.4301123 1.97265625 15.5 C1.98531468 17.68880043 1.99767472 19.87760261 2.00976562 22.06640625 C2.03448472 25.5246317 2.06233249 28.98276712 2.09594727 32.44091797 C2.12634443 35.7731175 2.14399479 39.10520509 2.16015625 42.4375 C2.17361588 43.45972656 2.1870755 44.48195312 2.20094299 45.53515625 C2.22138798 51.44768891 2.12468481 57.40439526 0 63 C-2.625 65.5625 -2.625 65.5625 -5 67 C-4.79503906 66.43152344 -4.59007812 65.86304688 -4.37890625 65.27734375 C-4.10949219 64.50519531 -3.84007812 63.73304688 -3.5625 62.9375 C-3.29566406 62.18339844 -3.02882813 61.42929688 -2.75390625 60.65234375 C-0.74740947 53.59321778 -0.79640781 46.44663906 -0.68359375 39.16015625 C-0.66281265 38.03806259 -0.64203156 36.91596893 -0.62062073 35.75987244 C-0.5555137 32.19414075 -0.49642159 28.62833873 -0.4375 25.0625 C-0.39427781 22.63736267 -0.35066236 20.21223232 -0.30664062 17.78710938 C-0.19987236 11.85814612 -0.09803552 5.92911373 0 0 Z " fill="#D5DDE6" transform="translate(971,187)"/>
<path d="M0 0 C0.33 0.66 0.66 1.32 1 2 C0.06553465 4.03144641 -0.93224776 6.03533587 -2 8 C-2.66 8 -3.32 8 -4 8 C-4.05671875 8.73992187 -4.1134375 9.47984375 -4.171875 10.2421875 C-5.29404251 13.97921704 -7.05958131 14.94971453 -10.25 17.125 C-11.20390625 17.78757813 -12.1578125 18.45015625 -13.140625 19.1328125 C-14.55601562 20.05707031 -14.55601562 20.05707031 -16 21 C-17.35351562 21.89332031 -17.35351562 21.89332031 -18.734375 22.8046875 C-19.48203125 23.19914062 -20.2296875 23.59359375 -21 24 C-21.66 23.67 -22.32 23.34 -23 23 C-22.46890625 22.55269531 -21.9378125 22.10539062 -21.390625 21.64453125 C-18.22490947 18.93518712 -15.32622417 16.41684199 -12.75 13.125 C-10.85149204 10.81966891 -9.9217832 10.3130482 -7 10 C-6.89816406 9.40703125 -6.79632813 8.8140625 -6.69140625 8.203125 C-5.88644348 5.63815889 -4.88433098 4.57256517 -2.9375 2.75 C-2.38964844 2.22921875 -1.84179688 1.7084375 -1.27734375 1.171875 C-0.85582031 0.78515625 -0.43429688 0.3984375 0 0 Z " fill="#79BBA6" transform="translate(225,216)"/>
<path d="M0 0 C0.66 0 1.32 0 2 0 C2.94401042 1.7578125 3.88802083 3.515625 4.83203125 5.2734375 C6.04763493 7.30502365 6.04763493 7.30502365 9 9 C9 9.66 9 10.32 9 11 C13.35590568 12.62849969 17.23934612 13.34118446 21.875 13.625 C23.02742187 13.69976562 24.17984375 13.77453125 25.3671875 13.8515625 C26.67042969 13.92503906 26.67042969 13.92503906 28 14 C28 14.99 28 15.98 28 17 C26.845 16.814375 25.69 16.62875 24.5 16.4375 C21.3721929 16.01123248 18.89738528 16.121271 15.8125 16.75 C12 17 12 17 9.4375 14.9375 C8.633125 13.968125 7.82875 12.99875 7 12 C5.73850796 11.00882768 4.46724648 10.02998834 3.1875 9.0625 C0.40345328 6.74246107 0.05376229 6.41473769 -0.4375 2.625 C-0.293125 1.75875 -0.14875 0.8925 0 0 Z M23 17 C25 18 25 18 25 18 Z " fill="#5B6B85" transform="translate(809,237)"/>
<path d="M0 0 C2.97 0 5.94 0 9 0 C9 7.92 9 15.84 9 24 C6.03 24 3.06 24 0 24 C0 16.08 0 8.16 0 0 Z M2 1 C-0.15011953 3.15011953 0.81479355 7.89797798 0.8125 10.875 C0.80025391 11.70386719 0.78800781 12.53273438 0.77539062 13.38671875 C0.77345703 14.18464844 0.77152344 14.98257813 0.76953125 15.8046875 C0.76542236 16.53671387 0.76131348 17.26874023 0.75708008 18.02294922 C0.88913153 20.32021044 0.88913153 20.32021044 3 23 C4.32 22.67 5.64 22.34 7 22 C7 15.4 7 8.8 7 2 C5.35 1.67 3.7 1.34 2 1 Z " fill="#D5ECE3" transform="translate(139,108)"/>
<path d="M0 0 C0.66 0 1.32 0 2 0 C2.96772969 2.90318907 3.13179347 4.77041713 3.14526367 7.79101562 C3.15164352 8.7621228 3.15802338 9.73322998 3.16459656 10.73376465 C3.16570938 11.78068481 3.1668222 12.82760498 3.16796875 13.90625 C3.17129715 14.98249634 3.17462555 16.05874268 3.17805481 17.16760254 C3.18311913 19.44392469 3.18546329 21.72025426 3.18530273 23.99658203 C3.1874913 27.48612624 3.20565814 30.97535541 3.22460938 34.46484375 C3.22754293 36.67447808 3.22952798 38.88411392 3.23046875 41.09375 C3.23765427 42.14067017 3.24483978 43.18759033 3.25224304 44.26623535 C3.24916641 45.23734253 3.24608978 46.20844971 3.24291992 47.20898438 C3.24434494 48.06375366 3.24576996 48.91852295 3.24723816 49.79919434 C3 52 3 52 1 55 C-0.87939453 55.2487793 -0.87939453 55.2487793 -3.1328125 55.07421875 C-4.34130859 54.99204102 -4.34130859 54.99204102 -5.57421875 54.90820312 C-6.83685547 54.79895508 -6.83685547 54.79895508 -8.125 54.6875 C-8.97449219 54.62626953 -9.82398438 54.56503906 -10.69921875 54.50195312 C-12.80053665 54.34848609 -14.90045124 54.17602278 -17 54 C-17 53.67 -17 53.34 -17 53 C-11.06 53 -5.12 53 1 53 C0.505 26.765 0.505 26.765 0 0 Z " fill="#EBF0F3" transform="translate(673,221)"/>
<path d="M0 0 C6.27 0 12.54 0 19 0 C19 7.92 19 15.84 19 24 C18.67 24 18.34 24 18 24 C17.505 12.615 17.505 12.615 17 1 C12.38 1.33 7.76 1.66 3 2 C2.93941406 3.16917969 2.87882813 4.33835937 2.81640625 5.54296875 C2.73195966 7.09115614 2.64731375 8.63933268 2.5625 10.1875 C2.52318359 10.95642578 2.48386719 11.72535156 2.44335938 12.51757812 C2.22492966 16.43251075 1.91307892 20.17120688 1 24 C0.67 24 0.34 24 0 24 C0 16.08 0 8.16 0 0 Z " fill="#85BDAA" transform="translate(247,108)"/>
<path d="M0 0 C2.97 0.495 2.97 0.495 6 1 C6.33 2.32 6.66 3.64 7 5 C7.66 5 8.32 5 9 5 C10.66730236 7.54999184 11.00952602 8.85075905 10.8125 11.9375 C9.70908888 16.09651115 8.03378768 18.96621232 5 22 C2.67724823 22.40047444 0.34260643 22.7397104 -2 23 C1.44615385 18.2 1.44615385 18.2 4.25 17.1875 C4.8275 17.125625 5.405 17.06375 6 17 C6.12375 16.360625 6.2475 15.72125 6.375 15.0625 C6.58125 14.381875 6.7875 13.70125 7 13 C7.66 12.67 8.32 12.34 9 12 C7.43930994 8.16921531 4.93185886 5.85856238 2 3 C1.34 2.01 0.68 1.02 0 0 Z " fill="#89C2AF" transform="translate(228,193)"/>
<path d="M0 0 C1.32 0 2.64 0 4 0 C5.32 2.31 6.64 4.62 8 7 C5.69 7 3.38 7 1 7 C0.7525 7.66 0.505 8.32 0.25 9 C-1.31817045 12.76360907 -3.14505046 16.3711424 -5 20 C-6.49818342 15.42446687 -4.76737432 12.25393993 -3 8 C-2.43192046 6.50210418 -1.86915807 5.00217777 -1.3125 3.5 C-0.879375 2.345 -0.44625 1.19 0 0 Z " fill="#C8E4D8" transform="translate(139,246)"/>
<path d="M0 0 C0.33 0 0.66 0 1 0 C1 4.62 1 9.24 1 14 C12.22 14 23.44 14 35 14 C35 14.33 35 14.66 35 15 C23.78 15 12.56 15 1 15 C1 22.92 1 30.84 1 39 C0.67 39 0.34 39 0 39 C-1.40027356 12.0423526 -1.40027356 12.0423526 0 0 Z " fill="#AAD2C5" transform="translate(276,93)"/>
<path d="M0 0 C0.33 0 0.66 0 1 0 C1 11.55 1 23.1 1 35 C2.98 34.505 2.98 34.505 5 34 C5.33 34.33 5.66 34.66 6 35 C7.85287502 35.07226502 9.70833878 35.0838122 11.5625 35.0625 C12.57441406 35.05347656 13.58632813 35.04445312 14.62890625 35.03515625 C15.41136719 35.02355469 16.19382812 35.01195312 17 35 C17 35.33 17 35.66 17 36 C14.73000175 36.50377768 12.45896997 37.00290019 10.1875 37.5 C8.92292969 37.7784375 7.65835938 38.056875 6.35546875 38.34375 C3 39 3 39 0 39 C0 26.13 0 13.26 0 0 Z " fill="#E7EEF4" transform="translate(619,151)"/>
<path d="M0 0 C0.76183594 -0.00515625 1.52367187 -0.0103125 2.30859375 -0.015625 C4.84181362 0.28291738 6.43457022 0.84696938 8.5625 2.25 C8.8925 3.24 9.2225 4.23 9.5625 5.25 C7.5825 6.24 7.5825 6.24 5.5625 7.25 C5.5625 7.58 5.5625 7.91 5.5625 8.25 C-0.7075 8.25 -6.9775 8.25 -13.4375 8.25 C-13.4375 7.92 -13.4375 7.59 -13.4375 7.25 C-12.45007813 7.21261719 -11.46265625 7.17523438 -10.4453125 7.13671875 C-9.16398438 7.07097656 -7.88265625 7.00523437 -6.5625 6.9375 C-5.28632812 6.87949219 -4.01015625 6.82148438 -2.6953125 6.76171875 C-1.62023437 6.59285156 -0.54515625 6.42398438 0.5625 6.25 C1.2225 5.26 1.8825 4.27 2.5625 3.25 C-0.7375 2.92 -4.0375 2.59 -7.4375 2.25 C-4.32763793 0.17675862 -3.54641613 -0.02392186 0 0 Z " fill="#E9EDF0" transform="translate(733.4375,209.75)"/>
<path d="M0 0 C-3.38502163 2.25668109 -6.19893097 3.77570067 -10.125 4.875 C-13.08935936 5.69109545 -13.08935936 5.69109545 -14.125 7.9375 C-14.558125 8.9584375 -14.558125 8.9584375 -15 10 C-16.875 11.8125 -16.875 11.8125 -19 13 C-21.25 12.6875 -21.25 12.6875 -23 12 C-18.16915163 5.23681229 -8.86635387 -2.8702609 0 0 Z " fill="#61708A" transform="translate(433,154)"/>
<path d="M0 0 C0.79921875 0.01804688 1.5984375 0.03609375 2.421875 0.0546875 C3.02515625 0.07789063 3.6284375 0.10109375 4.25 0.125 C4.58 0.785 4.91 1.445 5.25 2.125 C6.3946875 2.2796875 6.3946875 2.2796875 7.5625 2.4375 C11.14568706 3.35412925 12.19206835 5.15243207 14.25 8.125 C12.27 9.115 12.27 9.115 10.25 10.125 C9.54875 9.526875 8.8475 8.92875 8.125 8.3125 C2.57840979 4.09226832 -1.93827516 2.71221766 -8.75 2.125 C-5.68753253 0.34090198 -3.52920727 -0.10380021 0 0 Z " fill="#5D6A8D" transform="translate(549.75,207.875)"/>
<path d="M0 0 C0.33 0 0.66 0 1 0 C1 4.29 1 8.58 1 13 C-6.59 13 -14.18 13 -22 13 C-21.67 12.34 -21.34 11.68 -21 11 C-14.4 11 -7.8 11 -1 11 C-1 8.03 -1 5.06 -1 2 C-0.67 1.34 -0.34 0.68 0 0 Z " fill="#566581" transform="translate(773,228)"/>
<path d="M0 0 C10.89 0 21.78 0 33 0 C32.67 1.98 32.34 3.96 32 6 C31.63737061 5.35256836 31.27474121 4.70513672 30.90112305 4.03808594 C29.11986853 1.72467265 29.11986853 1.72467265 26.08911133 1.45410156 C24.9317749 1.4331543 23.77443848 1.41220703 22.58203125 1.390625 C21.32841797 1.35839844 20.07480469 1.32617188 18.78320312 1.29296875 C16.81770508 1.27169922 16.81770508 1.27169922 14.8125 1.25 C13.47717464 1.22184019 12.1418853 1.19191271 10.80664062 1.16015625 C7.5380912 1.08935735 4.2690408 1.04242752 1 1 C1 8.59 1 16.18 1 24 C0.67 24 0.34 24 0 24 C0 16.08 0 8.16 0 0 Z " fill="#83BBAB" transform="translate(277,108)"/>
<path d="M0 0 C0.33 0 0.66 0 1 0 C1.12375 0.969375 1.2475 1.93875 1.375 2.9375 C1.58125 3.948125 1.7875 4.95875 2 6 C2.66 6.33 3.32 6.66 4 7 C3.67 9.97 3.34 12.94 3 16 C3.66 16 4.32 16 5 16 C5.33 15.34 5.66 14.68 6 14 C6.17835515 18.54805635 5.99785435 21.8794254 4 26 C-0.75347397 17.85118748 -0.23066524 9.12409161 0 0 Z " fill="#626E8D" transform="translate(688,222)"/>
<path d="M0 0 C1.98 1.65 3.96 3.3 6 5 C4.15152345 9.70521303 0.84813672 12.05339339 -3.5625 14.3125 C-6.19288202 15.05440262 -7.46922494 14.9373241 -10 14 C-8.02 13.34 -6.04 12.68 -4 12 C-4 11.34 -4 10.68 -4 10 C-2.68 10 -1.36 10 0 10 C0.33 8.68 0.66 7.36 1 6 C0.67 6 0.34 6 0 6 C0 4.02 0 2.04 0 0 Z " fill="#5F6E87" transform="translate(756,254)"/>
<path d="M0 0 C-1.55701931 4.67105792 -4.08447373 8.08705685 -7 12 C-8.65 11.67 -10.3 11.34 -12 11 C-12 11.66 -12 12.32 -12 13 C-12.66 12.67 -13.32 12.34 -14 12 C-3.89320388 0 -3.89320388 0 0 0 Z " fill="#87C2AF" transform="translate(202,242)"/>
<path d="M0 0 C0.66 0 1.32 0 2 0 C1.7834375 1.051875 1.7834375 1.051875 1.5625 2.125 C0.98520948 5.07559597 0.48891532 8.03363983 0 11 C1.37285156 10.54947266 1.37285156 10.54947266 2.7734375 10.08984375 C3.96195313 9.70957031 5.15046875 9.32929688 6.375 8.9375 C7.55835938 8.55464844 8.74171875 8.17179687 9.9609375 7.77734375 C13 7 13 7 15 8 C10.1487032 11.55761766 3.99304575 13 -2 13 C-1.85915204 11.20793453 -1.71216299 9.41635083 -1.5625 7.625 C-1.48128906 6.62726563 -1.40007812 5.62953125 -1.31640625 4.6015625 C-1 2 -1 2 0 0 Z " fill="#8DC4B2" transform="translate(128,272)"/>
<path d="M0 0 C0.99 0.66 1.98 1.32 3 2 C2.01 3.485 2.01 3.485 1 5 C0.34 5 -0.32 5 -1 5 C-1.2475 5.61875 -1.495 6.2375 -1.75 6.875 C-3.20628639 9.35068687 -4.37812506 9.95125002 -7 11 C-7 11.66 -7 12.32 -7 13 C-8.32 13.33 -9.64 13.66 -11 14 C-11.66 13.01 -12.32 12.02 -13 11 C-11.68 11 -10.36 11 -9 11 C-9 10.34 -9 9.68 -9 9 C-8.34 9 -7.68 9 -7 9 C-6.34 7.68 -5.68 6.36 -5 5 C-4.34 5 -3.68 5 -3 5 C-3 4.34 -3 3.68 -3 3 C-1.5 1.375 -1.5 1.375 0 0 Z " fill="#D5EBE1" transform="translate(185,253)"/>
<path d="M0 0 C0 1.98 0 3.96 0 6 C-0.66 5.67 -1.32 5.34 -2 5 C-6.65275976 4.6947378 -6.65275976 4.6947378 -11 6 C-11 5.34 -11 4.68 -11 4 C-12.32 3.67 -13.64 3.34 -15 3 C-9.63999211 0.74315457 -5.8022175 -0.36263859 0 0 Z " fill="#58677F" transform="translate(1043,185)"/>
<path d="M0 0 C0.99 0.33 1.98 0.66 3 1 C2.43410156 1.54269531 1.86820313 2.08539063 1.28515625 2.64453125 C0.55167969 3.35996094 -0.18179688 4.07539063 -0.9375 4.8125 C-2.03384766 5.87404297 -2.03384766 5.87404297 -3.15234375 6.95703125 C-5.20834646 8.95536163 -5.20834646 8.95536163 -6 12 C-8.0625 12.6875 -8.0625 12.6875 -10 13 C-10.33 12.01 -10.66 11.02 -11 10 C-10.01 10 -9.02 10 -8 10 C-7.9175 9.236875 -7.835 8.47375 -7.75 7.6875 C-7 5 -7 5 -5.125 3.1875 C-3 2 -3 2 0 2 C0 1.34 0 0.68 0 0 Z " fill="#D9EDE2" transform="translate(224,214)"/>
<path d="M0 0 C2.9647382 1.68083504 5.61839472 3.55350084 8 6 C8 6.66 8 7.32 8 8 C7.01 8 6.02 8 5 8 C5 7.34 5 6.68 5 6 C2.525 5.505 2.525 5.505 0 5 C0 4.01 0 3.02 0 2 C-4.29 1.67 -8.58 1.34 -13 1 C-8.11742111 -1.44128945 -5.19176978 -1.48215287 0 0 Z " fill="#DFE7ED" transform="translate(640,212)"/>
<path d="M0 0 C0 11.22 0 22.44 0 34 C-0.33 34 -0.66 34 -1 34 C-1.33 23.44 -1.66 12.88 -2 2 C-2.99 2.66 -3.98 3.32 -5 4 C-5.99 3.01 -6.98 2.02 -8 1 C-5 0 -5 0 0 0 Z " fill="#677388" transform="translate(618,150)"/>
<path d="M0 0 C-0.33 1.32 -0.66 2.64 -1 4 C-3.97 4 -6.94 4 -10 4 C-10 3.34 -10 2.68 -10 2 C-12.97 2 -15.94 2 -19 2 C-19 1.67 -19 1.34 -19 1 C-16.58440932 0.63645961 -14.16805703 0.28389449 -11.75 -0.0625 C-11.06808594 -0.16626953 -10.38617187 -0.27003906 -9.68359375 -0.37695312 C-6.2150075 -0.86524925 -3.33088887 -1.22762141 0 0 Z " fill="#DDE4E8" transform="translate(845,273)"/>
<path d="M0 0 C0.33 1.32 0.66 2.64 1 4 C1.95261719 3.7834375 2.90523437 3.566875 3.88671875 3.34375 C5.14097656 3.0653125 6.39523438 2.786875 7.6875 2.5 C9.54955078 2.08234375 9.54955078 2.08234375 11.44921875 1.65625 C14.42398218 1.10645874 16.99368602 0.86204295 20 1 C17.24669306 2.83553796 15.88342796 3.40778129 12.76953125 4.0703125 C11.56586914 4.33134766 11.56586914 4.33134766 10.33789062 4.59765625 C9.08782227 4.85869141 9.08782227 4.85869141 7.8125 5.125 C6.96751953 5.30675781 6.12253906 5.48851562 5.25195312 5.67578125 C3.1691928 6.12292753 1.08474994 6.56222376 -1 7 C-1.04254356 5.00045254 -1.04080783 2.99958364 -1 1 C-0.67 0.67 -0.34 0.34 0 0 Z " fill="#CDE8DE" transform="translate(129,276)"/>
<path d="M0 0 C0.69738281 0.01804688 1.39476562 0.03609375 2.11328125 0.0546875 C3.82611539 0.10161446 5.53823824 0.17335395 7.25 0.25 C6.26171875 1.70703125 6.26171875 1.70703125 4.25 3.25 C1.45748417 3.62674518 -1.13779201 3.85191941 -3.9375 3.9375 C-4.68708984 3.97166016 -5.43667969 4.00582031 -6.20898438 4.04101562 C-8.05546838 4.12334294 -9.90270994 4.18835281 -11.75 4.25 C-8.36399708 -0.18322032 -5.23938601 -0.25751236 0 0 Z " fill="#616F89" transform="translate(731.75,186.75)"/>
<path d="M0 0 C0.66 0.99 1.32 1.98 2 3 C1.5359375 3.78697266 1.5359375 3.78697266 1.0625 4.58984375 C-0.68239299 8.54792821 -0.89556103 12.74097563 -1.4375 17.00390625 C-2 20 -2 20 -4 23 C-4.48661855 14.37603795 -3.92480024 7.76199333 0 0 Z " fill="#68768C" transform="translate(998,212)"/>
<path d="M0 0 C1.32 1.32 2.64 2.64 4 4 C1 6 1 6 -1 6 C-1 5.34 -1 4.68 -1 4 C-1.66 3.67 -2.32 3.34 -3 3 C-3.33 3.66 -3.66 4.32 -4 5 C-4 4.34 -4 3.68 -4 3 C-11.92 3 -19.84 3 -28 3 C-28 2.67 -28 2.34 -28 2 C-18.76 2 -9.52 2 0 2 C0 1.34 0 0.68 0 0 Z " fill="#65718B" transform="translate(748,217)"/>
<path d="M0 0 C0.99 1.32 1.98 2.64 3 4 C1.88121617 5.17262904 0.75476949 6.33795138 -0.375 7.5 C-1.00148438 8.1496875 -1.62796875 8.799375 -2.2734375 9.46875 C-4 11 -4 11 -6 11 C-6 10.01 -6 9.02 -6 8 C-6.66 7.67 -7.32 7.34 -8 7 C-7.05125 6.401875 -6.1025 5.80375 -5.125 5.1875 C-1.86035803 3.18437474 -1.86035803 3.18437474 0 0 Z " fill="#E1E3EA" transform="translate(477,259)"/>
<path d="M0 0 C4.31664136 3.26146236 7.10396696 5.75802629 9 11 C8.6875 13.375 8.6875 13.375 8 15 C5.3534665 12.3534665 4.40058003 9.43778736 3 6 C2.01 6.99 1.02 7.98 0 9 C-1.10844919 5.67465243 -0.84454356 3.37817425 0 0 Z " fill="#6B7890" transform="translate(475,215)"/>
<path d="M0 0 C0.66 0 1.32 0 2 0 C4 3 4 3 3.8125 5.0625 C3 7 3 7 0 9 C-2.7866308 9.6966577 -5.11879288 10 -8 10 C-6.824375 9.1028125 -6.824375 9.1028125 -5.625 8.1875 C-2.85425677 6.08914751 -2.85425677 6.08914751 -1 3 C-0.34 3 0.32 3 1 3 C0.67 2.01 0.34 1.02 0 0 Z " fill="#87C0B0" transform="translate(258,181)"/>
<path d="M0 0 C0.33 0.66 0.66 1.32 1 2 C3.02820507 2.56240942 3.02820507 2.56240942 5.47265625 2.8515625 C6.82133789 3.04492188 6.82133789 3.04492188 8.19726562 3.2421875 C9.61555664 3.43167969 9.61555664 3.43167969 11.0625 3.625 C12.01189453 3.7590625 12.96128906 3.893125 13.93945312 4.03125 C16.29196345 4.36225648 18.64533094 4.68478072 21 5 C21 5.33 21 5.66 21 6 C12.7763806 6.38750039 5.8231062 5.58716898 -2 3 C-1.34 2.67 -0.68 2.34 0 2 C0 1.34 0 0.68 0 0 Z " fill="#7A859C" transform="translate(717,268)"/>
<path d="M0 0 C0.33 0.99 0.66 1.98 1 3 C-1.3125 6.1875 -1.3125 6.1875 -4 9 C-4.66 9 -5.32 9 -6 9 C-6.6875 6.1875 -6.6875 6.1875 -7 3 C-4.91535587 -0.29154337 -4.06752403 0 0 0 Z " fill="#E2E7ED" transform="translate(410,233)"/>
<path d="M0 0 C2.91375388 1.45687694 3.35777779 3.50753903 4.6875 6.4375 C5.14511719 7.42621094 5.60273437 8.41492188 6.07421875 9.43359375 C6.37972656 10.28050781 6.68523438 11.12742188 7 12 C6.67 12.66 6.34 13.32 6 14 C5.01 13.34 4.02 12.68 3 12 C3 11.34 3 10.68 3 10 C2.34 10 1.68 10 1 10 C0.22157062 6.59437148 -0.09978121 3.49234244 0 0 Z " fill="#66748E" transform="translate(665,204)"/>
<path d="M0 0 C1.125 1.75 1.125 1.75 2 4 C1.125 6.25 1.125 6.25 0 8 C-1.32 8 -2.64 8 -4 8 C-4.33 9.65 -4.66 11.3 -5 13 C-5.66 13 -6.32 13 -7 13 C-5.58832253 7.73829306 -3.25149768 4.27828642 0 0 Z " fill="#65748B" transform="translate(797,200)"/>
<path d="M0 0 C0.99 0.33 1.98 0.66 3 1 C3 1.99 3 2.98 3 4 C3.66 4 4.32 4 5 4 C6.26237731 6.52475462 6.09856404 8.31200466 6.0625 11.125 C6.05347656 12.03507813 6.04445313 12.94515625 6.03515625 13.8828125 C6.02355469 14.58148438 6.01195312 15.28015625 6 16 C4.36457914 12.79029551 2.85968003 9.53192428 1.375 6.25 C0.92898438 5.26515625 0.48296875 4.2803125 0.0234375 3.265625 C-0.31429687 2.51796875 -0.65203125 1.7703125 -1 1 C-0.67 0.67 -0.34 0.34 0 0 Z " fill="#DCE4EA" transform="translate(768,204)"/>
<path d="M0 0 C1.27230469 0.01804688 2.54460937 0.03609375 3.85546875 0.0546875 C5.31919922 0.08949219 5.31919922 0.08949219 6.8125 0.125 C6.8125 1.115 6.8125 2.105 6.8125 3.125 C1.2025 2.795 -4.4075 2.465 -10.1875 2.125 C-6.4507157 -0.36618953 -4.44298181 -0.0815226 0 0 Z " fill="#5F6D86" transform="translate(1092.1875,186.875)"/>
<path d="M0 0 C0 0.66 0 1.32 0 2 C4.29 2 8.58 2 13 2 C13 2.33 13 2.66 13 3 C11.92621094 3.04898438 10.85242188 3.09796875 9.74609375 3.1484375 C8.30987358 3.22353398 6.87367681 3.29907876 5.4375 3.375 C4.73302734 3.4059375 4.02855469 3.436875 3.30273438 3.46875 C-1.41295741 3.72952558 -5.50385496 4.54658123 -10 6 C-9.67 5.01 -9.34 4.02 -9 3 C-2.88888889 0 -2.88888889 0 0 0 Z " fill="#D1D7E1" transform="translate(536,184)"/>
<path d="M0 0 C0.66 0 1.32 0 2 0 C2 7.26 2 14.52 2 22 C-0.31 22 -2.62 22 -5 22 C-5 21.01 -5 20.02 -5 19 C-3.35 19.33 -1.7 19.66 0 20 C0 13.4 0 6.8 0 0 Z " fill="#E3F0EB" transform="translate(273,109)"/>
<path d="M0 0 C0.99 0.33 1.98 0.66 3 1 C3 1.66 3 2.32 3 3 C1.25 4.4375 1.25 4.4375 -1 6 C-1.5775 6.556875 -2.155 7.11375 -2.75 7.6875 C-6.17782055 9.68706199 -9.07267657 9.19636617 -13 9 C-10 7 -10 7 -7.0625 5.625 C-4.09474654 4.05027367 -2.22602536 2.48287444 0 0 Z " fill="#6D7B8F" transform="translate(560,242)"/>
<path d="M0 0 C0.66 0 1.32 0 2 0 C2.94401042 1.7578125 3.88802083 3.515625 4.83203125 5.2734375 C6.04763493 7.30502365 6.04763493 7.30502365 9 9 C9 9.99 9 10.98 9 12 C5.53387896 10.45950176 2.69072118 8.69072118 0 6 C-0.3125 2.75 -0.3125 2.75 0 0 Z " fill="#687588" transform="translate(809,237)"/>
<path d="M0 0 C0.33 0.99 0.66 1.98 1 3 C0.01 4.485 0.01 4.485 -1 6 C-0.34 6 0.32 6 1 6 C1 6.66 1 7.32 1 8 C0.01 8.495 0.01 8.495 -1 9 C-1.309375 9.804375 -1.61875 10.60875 -1.9375 11.4375 C-3 14 -3 14 -6 16 C-5.52412884 9.97229862 -2.80277043 5.23321711 0 0 Z " fill="#6A7692" transform="translate(695,206)"/>
<path d="M0 0 C5.19822672 1.36144033 8.09543873 3.46730171 12 7 C10.68 7.33 9.36 7.66 8 8 C8 7.34 8 6.68 8 6 C4.7 5.34 1.4 4.68 -2 4 C-1.34 3.67 -0.68 3.34 0 3 C0 2.01 0 1.02 0 0 Z " fill="#63748A" transform="translate(650,192)"/>
<path d="M0 0 C1.8709949 2.80649235 3.23017952 5.49960473 4.625 8.5625 C5.07101562 9.53316406 5.51703125 10.50382813 5.9765625 11.50390625 C7 14 7 14 7 16 C6.01 16 5.02 16 4 16 C1.18150494 10.45108785 -0.5326514 6.258654 0 0 Z " fill="#DFE7EF" transform="translate(1051,240)"/>
<path d="M0 0 C1.32 0.99 2.64 1.98 4 3 C3 6 3 6 1 7 C0.67 7.99 0.34 8.98 0 10 C-2.0625 10.6875 -2.0625 10.6875 -4 11 C-4 10.01 -4 9.02 -4 8 C-3.34 7.67 -2.68 7.34 -2 7 C-1.26924352 4.6859378 -0.59861742 2.35171131 0 0 Z " fill="#CEEBDE" transform="translate(234,200)"/>
<path d="M0 0 C1.24910156 0.05317383 1.24910156 0.05317383 2.5234375 0.10742188 C3.32007813 0.15060547 4.11671875 0.19378906 4.9375 0.23828125 C5.66839844 0.27606689 6.39929688 0.31385254 7.15234375 0.3527832 C9 0.6875 9 0.6875 11 2.6875 C10.13117187 2.67589844 9.26234375 2.66429687 8.3671875 2.65234375 C7.21476563 2.64332031 6.06234375 2.63429688 4.875 2.625 C3.16957031 2.60759766 3.16957031 2.60759766 1.4296875 2.58984375 C-1.99777943 2.60257121 -1.99777943 2.60257121 -5.3125 3.28125 C-6.199375 3.4153125 -7.08625 3.549375 -8 3.6875 C-9.875 2.25 -9.875 2.25 -11 0.6875 C-7.56868771 -1.02815615 -3.76027362 -0.21246128 0 0 Z " fill="#DEE5EC" transform="translate(541,273.3125)"/>
<path d="M0 0 C0.33 0 0.66 0 1 0 C1.13494246 2.6058889 1.23402299 5.20482111 1.3125 7.8125 C1.35439453 8.55048828 1.39628906 9.28847656 1.43945312 10.04882812 C1.48828125 12.20703125 1.48828125 12.20703125 1 16 C-1.51953125 18.01171875 -1.51953125 18.01171875 -4 19 C-3.69255859 18.19949219 -3.69255859 18.19949219 -3.37890625 17.3828125 C-1.282843 11.58604428 -0.37189499 6.14267934 0 0 Z " fill="#6D7A91" transform="translate(1115,226)"/>
<path d="M0 0 C0.66 0.33 1.32 0.66 2 1 C-1.02505027 6.44509049 -4.37246272 10.18623136 -10 13 C-10.66 12.67 -11.32 12.34 -12 12 C-11.46890625 11.55269531 -10.9378125 11.10539063 -10.390625 10.64453125 C-6.52111681 7.33285362 -3.01412695 4.14442456 0 0 Z " fill="#96C8B6" transform="translate(214,227)"/>
<path d="M0 0 C2.31 0 4.62 0 7 0 C7 0.66 7 1.32 7 2 C7.598125 1.79375 8.19625 1.5875 8.8125 1.375 C11 1 11 1 14 3 C14.1875 5.625 14.1875 5.625 14 8 C13.360625 7.401875 12.72125 6.80375 12.0625 6.1875 C8.25459354 3.46756681 4.46045863 2.28274627 0 1 C0 0.67 0 0.34 0 0 Z " fill="#6A7890" transform="translate(734,209)"/>
<path d="M0 0 C0 2.97 0 5.94 0 9 C-1.32 9 -2.64 9 -4 9 C-4 6.36 -4 3.72 -4 1 C-2 0 -2 0 0 0 Z " fill="#69C2A8" transform="translate(145,96)"/>
<path d="M0 0 C2.0625 2 2.0625 2 3 4 C2.34 4.66 1.68 5.32 1 6 C0.175 5.525625 -0.65 5.05125 -1.5 4.5625 C-5.52795901 2.76430401 -8.63173579 2.3765745 -13 2 C-8.74159615 -0.42505914 -4.81729886 -0.7846358 0 0 Z " fill="#6E7994" transform="translate(554,208)"/>
<path d="M0 0 C3.32993034 3.82941989 5.05324525 8.37522222 7 13 C4 12 4 12 2 10 C1.443125 9.608125 0.88625 9.21625 0.3125 8.8125 C-1 7 -1 7 -0.6875 3.3125 C-0.460625 2.219375 -0.23375 1.12625 0 0 Z " fill="#D8DFE7" transform="translate(403,194)"/>
<path d="M0 0 C1.65 0.99 3.3 1.98 5 3 C4.43628586 6.26954202 3.50037734 7.82575883 1 10 C1 9.34 1 8.68 1 8 C0.34 8 -0.32 8 -1 8 C-1.33 6.68 -1.66 5.36 -2 4 C-1.01 3.67 -0.02 3.34 1 3 C0.67 2.01 0.34 1.02 0 0 Z " fill="#607089" transform="translate(478,165)"/>
<path d="M0 0 C-1.25942386 1.19959375 -2.53295286 2.38439443 -3.8125 3.5625 C-4.87404297 4.55443359 -4.87404297 4.55443359 -5.95703125 5.56640625 C-6.63121094 6.03949219 -7.30539063 6.51257813 -8 7 C-8.99 6.67 -9.98 6.34 -11 6 C-10.34 4.68 -9.68 3.36 -9 2 C-8.01 2 -7.02 2 -6 2 C-6 1.34 -6 0.68 -6 0 C-3 -1 -3 -1 0 0 Z " fill="#D8EDE2" transform="translate(211,232)"/>
<path d="M0 0 C1.50433594 0.01353516 1.50433594 0.01353516 3.0390625 0.02734375 C3.80992187 0.03894531 4.58078125 0.05054688 5.375 0.0625 C5.375 0.3925 5.375 0.7225 5.375 1.0625 C3.065 1.7225 0.755 2.3825 -1.625 3.0625 C-1.625 3.3925 -1.625 3.7225 -1.625 4.0625 C-4.595 4.0625 -7.565 4.0625 -10.625 4.0625 C-6.70103274 0.13853274 -5.37056788 -0.06244846 0 0 Z " fill="#E0E9EC" transform="translate(543.625,209.9375)"/>
<path d="M0 0 C0.66 0.99 1.32 1.98 2 3 C-2.95 3 -7.9 3 -13 3 C-9.34000126 -0.65999874 -5.01437299 -0.37143504 0 0 Z " fill="#D3D9E0" transform="translate(1098,184)"/>
<path d="M0 0 C2.375 0.3125 2.375 0.3125 5 1 C5.66 1.99 6.32 2.98 7 4 C5.9275 3.9175 4.855 3.835 3.75 3.75 C-0.04009265 3.63762783 -0.04009265 3.63762783 -2.4375 6 C-2.953125 6.66 -3.46875 7.32 -4 8 C-4.66 7.67 -5.32 7.34 -6 7 C-4.02 4.69 -2.04 2.38 0 0 Z " fill="#C2E1D7" transform="translate(206,174)"/>
<path d="M0 0 C0.33 0 0.66 0 1 0 C1.33634376 1.93697967 1.66897165 3.87460486 2 5.8125 C2.185625 6.89144531 2.37125 7.97039062 2.5625 9.08203125 C3 12 3 12 3 15 C0.525 14.01 0.525 14.01 -2 13 C-2 11.02 -2 9.04 -2 7 C-1.34 7 -0.68 7 0 7 C0 4.69 0 2.38 0 0 Z " fill="#6E7C92" transform="translate(522,227)"/>
<path d="M0 0 C1.76923828 0.01353516 1.76923828 0.01353516 3.57421875 0.02734375 C4.47785156 0.03894531 5.38148438 0.05054688 6.3125 0.0625 C6.3125 0.3925 6.3125 0.7225 6.3125 1.0625 C-0.1225 1.5575 -0.1225 1.5575 -6.6875 2.0625 C-6.6875 2.7225 -6.6875 3.3825 -6.6875 4.0625 C-9.6575 3.5675 -9.6575 3.5675 -12.6875 3.0625 C-8.25030401 0.10436934 -5.23338583 -0.0518157 0 0 Z " fill="#546782" transform="translate(439.6875,152.9375)"/>
<path d="M0 0 C0.66 1.98 1.32 3.96 2 6 C-5.57142857 4.14285714 -5.57142857 4.14285714 -8 1 C-5.07175348 0.02391783 -3.04386724 -0.08226668 0 0 Z " fill="#677590" transform="translate(814,266)"/>
<path d="M0 0 C0.33 0 0.66 0 1 0 C1.12375 0.969375 1.2475 1.93875 1.375 2.9375 C1.58125 3.948125 1.7875 4.95875 2 6 C2.66 6.33 3.32 6.66 4 7 C3.34 9.97 2.68 12.94 2 16 C0 14 0 14 -0.1953125 10.7421875 C-0.17210937 9.46601563 -0.14890625 8.18984375 -0.125 6.875 C-0.10695313 5.59367188 -0.08890625 4.31234375 -0.0703125 2.9921875 C-0.04710937 2.00476563 -0.02390625 1.01734375 0 0 Z " fill="#6B7C95" transform="translate(688,222)"/>
<path d="M0 0 C1.32 0.33 2.64 0.66 4 1 C1.69 3.64 -0.62 6.28 -3 9 C-3.99 8.67 -4.98 8.34 -6 8 C-6 7.01 -6 6.02 -6 5 C-5.01 5 -4.02 5 -3 5 C-3 4.34 -3 3.68 -3 3 C-1.75 1.3125 -1.75 1.3125 0 0 Z " fill="#DEE6EB" transform="translate(700,196)"/>
<path d="M0 0 C0.33 0 0.66 0 1 0 C1.103125 1.051875 1.20625 2.10375 1.3125 3.1875 C1.97733415 6.87430754 2.88566296 8.96638599 5 12 C3.68 12 2.36 12 1 12 C-2 5.375 -2 5.375 -2 2 C-1.34 2 -0.68 2 0 2 C0 1.34 0 0.68 0 0 Z " fill="#697491" transform="translate(427,182)"/>
<path d="M0 0 C3.63 0 7.26 0 11 0 C10.34 1.32 9.68 2.64 9 4 C4.53159589 3.50351065 3.31012244 3.31012244 0 0 Z " fill="#85BDAE" transform="translate(138,132)"/>
<path d="M0 0 C0.66 0.33 1.32 0.66 2 1 C0.87548273 3.9719385 -0.22293791 6.33440687 -2 9 C-2.66 9 -3.32 9 -4 9 C-4 8.34 -4 7.68 -4 7 C-5.65 7 -7.3 7 -9 7 C-6.62624557 4.25144224 -4.33642103 3.3170083 -1 2 C-0.67 1.34 -0.34 0.68 0 0 Z " fill="#64758F" transform="translate(942,246)"/>
<path d="M0 0 C2.70583756 0.25560029 5.37210774 0.56759978 8.0625 0.9375 C9.20041992 1.08735352 9.20041992 1.08735352 10.36132812 1.24023438 C12.24154246 1.48856457 14.12086128 1.74365751 16 2 C16 2.33 16 2.66 16 3 C13.9190156 3.24959784 11.83499188 3.47394907 9.75 3.6875 C8.58984375 3.81511719 7.4296875 3.94273437 6.234375 4.07421875 C2.67533206 3.99254989 1.51822275 3.42472438 -1 1 C-0.67 0.67 -0.34 0.34 0 0 Z " fill="#5D6D83" transform="translate(923,249)"/>
<path d="M0 0 C0.33 0 0.66 0 1 0 C1.44680851 8.78723404 1.44680851 8.78723404 -2 13 C-2.99 13.33 -3.98 13.66 -5 14 C-3.46527032 9.27775484 -1.76054874 4.64144669 0 0 Z " fill="#D2DAE0" transform="translate(872,240)"/>
<path d="M0 0 C2.88623997 3.25865804 4.64299639 5.5969555 5 10 C4.67 10.66 4.34 11.32 4 12 C3.34 12 2.68 12 2 12 C0.70756464 7.8803623 -0.26252625 4.33168317 0 0 Z " fill="#62728A" transform="translate(768,208)"/>
<path d="M0 0 C0.33 0 0.66 0 1 0 C1.125 6.75 1.125 6.75 0 9 C-3.0625 9.625 -3.0625 9.625 -6 10 C-5.67 9.34 -5.34 8.68 -5 8 C-4.34 8 -3.68 8 -3 8 C-2.87625 7.236875 -2.7525 6.47375 -2.625 5.6875 C-2 3 -2 3 0 0 Z " fill="#D6DEE7" transform="translate(965,254)"/>
<path d="M0 0 C0.33 0 0.66 0 1 0 C1 5.28 1 10.56 1 16 C1.66 16 2.32 16 3 16 C3 16.99 3 17.98 3 19 C2.34 19 1.68 19 1 19 C0.67 19.66 0.34 20.32 0 21 C-1.20217503 18.59564994 -1.03897118 17.31618631 -0.87890625 14.6484375 C-0.83056641 13.79765625 -0.78222656 12.946875 -0.73242188 12.0703125 C-0.67634766 11.18085938 -0.62027344 10.29140625 -0.5625 9.375 C-0.51029297 8.4778125 -0.45808594 7.580625 -0.40429688 6.65625 C-0.2744565 4.43715988 -0.13948661 2.21850129 0 0 Z " fill="#BFC8CD" transform="translate(484,230)"/>
<path d="M0 0 C1.32 0 2.64 0 4 0 C4 0.66 4 1.32 4 2 C2.03501678 3.38442 0.02951535 4.71203834 -2 6 C-3.34175973 6.98866506 -4.67896002 7.9838154 -6 9 C-5.8125 6.625 -5.8125 6.625 -5 4 C-2.4375 2.6875 -2.4375 2.6875 0 2 C0 1.34 0 0.68 0 0 Z " fill="#D7EDE2" transform="translate(198,240)"/>
<path d="M0 0 C0 0.33 0 0.66 0 1 C-0.98742187 1.06058594 -1.97484375 1.12117187 -2.9921875 1.18359375 C-4.27351563 1.26738281 -5.55484375 1.35117188 -6.875 1.4375 C-8.15117187 1.51871094 -9.42734375 1.59992188 -10.7421875 1.68359375 C-13.88300152 1.79206027 -13.88300152 1.79206027 -16 3 C-16.66 2.34 -17.32 1.68 -18 1 C-11.82158131 -1.41109022 -6.42458483 -1.55747511 0 0 Z " fill="#D3DAE2" transform="translate(450,176)"/>
<path d="M0 0 C0.99 0.66 1.98 1.32 3 2 C2.01 3.485 2.01 3.485 1 5 C0.34 5 -0.32 5 -1 5 C-1.2475 5.61875 -1.495 6.2375 -1.75 6.875 C-3.20628639 9.35068687 -4.37812506 9.95125002 -7 11 C-6.525625 10.4225 -6.05125 9.845 -5.5625 9.25 C-3.90581133 7.15317821 -3.90581133 7.15317821 -3.5 4.9375 C-2.88607671 2.55854725 -1.82719113 1.58886185 0 0 Z " fill="#C4E1D5" transform="translate(185,253)"/>
<path d="M0 0 C0.33 1.32 0.66 2.64 1 4 C-0.75 5.5625 -0.75 5.5625 -3 7 C-5.25 6.6875 -5.25 6.6875 -7 6 C-3.375 1.125 -3.375 1.125 0 0 Z " fill="#CEE6DB" transform="translate(167,215)"/>
<path d="M0 0 C0.66 0 1.32 0 2 0 C3.03435556 1.64556566 4.02763513 3.3170608 5 5 C6.31037934 6.68477344 7.63823078 8.35648543 9 10 C6.03 9.505 6.03 9.505 3 9 C3 7.68 3 6.36 3 5 C2.01 4.67 1.02 4.34 0 4 C0 2.68 0 1.36 0 0 Z " fill="#91C4B2" transform="translate(214,165)"/>
<path d="M0 0 C0.79349156 2.38047467 1.35365821 4.47923722 1.75 6.9375 C1.86859375 7.60652344 1.9871875 8.27554688 2.109375 8.96484375 C1.96160693 11.71438525 0.76957823 12.96133642 -1 15 C-1.02693575 12.87506859 -1.04636628 10.75004088 -1.0625 8.625 C-1.07410156 7.44164062 -1.08570313 6.25828125 -1.09765625 5.0390625 C-1 2 -1 2 0 0 Z " fill="#556684" transform="translate(1053,223)"/>
<path d="M0 0 C0.66 0 1.32 0 2 0 C1.7834375 0.99 1.7834375 0.99 1.5625 2 C0.87700084 5.65599551 0.43824485 9.30622195 0 13 C-0.66 13 -1.32 13 -2 13 C-1.85915204 11.20793453 -1.71216299 9.41635083 -1.5625 7.625 C-1.48128906 6.62726563 -1.40007812 5.62953125 -1.31640625 4.6015625 C-1 2 -1 2 0 0 Z " fill="#95CBB9" transform="translate(128,272)"/>
<path d="M0 0 C3.99455527 0.61454696 6.74466336 2.70646737 10 5 C8.125 6.0625 8.125 6.0625 6 7 C5.34 6.67 4.68 6.34 4 6 C4 5.34 4 4.68 4 4 C3.34 4 2.68 4 2 4 C2 3.01 2 2.02 2 1 C1.34 0.67 0.68 0.34 0 0 Z " fill="#DEE5E3" transform="translate(513,264)"/>
<path d="M0 0 C-0.66 1.32 -1.32 2.64 -2 4 C-4.64 3.34 -7.28 2.68 -10 2 C-6.16991045 -0.55339303 -4.41711378 -1.47237126 0 0 Z " fill="#546685" transform="translate(554,251)"/>
<path d="M0 0 C1.45792884 -0.05399736 2.91642712 -0.09279177 4.375 -0.125 C5.18710938 -0.14820313 5.99921875 -0.17140625 6.8359375 -0.1953125 C9 0 9 0 11 2 C7.78548731 3.60725635 4.56387464 3.05748185 1 3 C0.67 2.01 0.34 1.02 0 0 Z " fill="#DCE5ED" transform="translate(1089,248)"/>
<path d="M0 0 C2.17854707 3.2678206 3.49760034 6.38058265 5 10 C3.35 10.33 1.7 10.66 0 11 C0 7.37 0 3.74 0 0 Z " fill="#697891" transform="translate(1074,234)"/>
<path d="M0 0 C0.33 0 0.66 0 1 0 C1.06058594 0.68707031 1.12117187 1.37414062 1.18359375 2.08203125 C1.26738281 2.98308594 1.35117187 3.88414062 1.4375 4.8125 C1.51871094 5.70582031 1.59992187 6.59914062 1.68359375 7.51953125 C1.93489767 10.12743559 1.93489767 10.12743559 3 13 C1.68 13 0.36 13 -1 13 C-1 13.99 -1 14.98 -1 16 C-1.66 15.67 -2.32 15.34 -3 15 C-2.52433594 14.18789062 -2.52433594 14.18789062 -2.0390625 13.359375 C-0.81692026 10.5842851 -0.59056564 8.26791902 -0.375 5.25 C-0.30023437 4.26515625 -0.22546875 3.2803125 -0.1484375 2.265625 C-0.09945312 1.51796875 -0.05046875 0.7703125 0 0 Z " fill="#79859C" transform="translate(850,226)"/>
<path d="M0 0 C-0.33 0.99 -0.66 1.98 -1 3 C-3.06640625 3.73046875 -3.06640625 3.73046875 -5.5625 4.1875 C-6.38878906 4.34605469 -7.21507812 4.50460938 -8.06640625 4.66796875 C-9.02353516 4.83232422 -9.02353516 4.83232422 -10 5 C-9 2 -9 2 -6.6875 0.8125 C-4 0 -4 0 0 0 Z " fill="#E2EAF2" transform="translate(617,147)"/>
<path d="M0 0 C3.44428265 1.44781793 5.36130962 3.27694609 7.75 6.125 C8.36359375 6.84945313 8.9771875 7.57390625 9.609375 8.3203125 C10.29773438 9.15175781 10.29773438 9.15175781 11 10 C10.01 10.495 10.01 10.495 9 11 C6 10 6 10 4.5 7.1875 C4.005 6.135625 3.51 5.08375 3 4 C2.03465478 2.64136599 1.04722851 1.29656863 0 0 Z " fill="#9CCAB9" transform="translate(160,253)"/>
<path d="M0 0 C6.625 0.75 6.625 0.75 10 3 C10.33 3.66 10.66 4.32 11 5 C3.49230769 4.50769231 3.49230769 4.50769231 1 1.9375 C0.67 1.298125 0.34 0.65875 0 0 Z " fill="#637188" transform="translate(427,248)"/>
<path d="M0 0 C1.32 1.65 2.64 3.3 4 5 C2.625 6.5 2.625 6.5 1 8 C0.34 8 -0.32 8 -1 8 C-1.33 7.01 -1.66 6.02 -2 5 C-2.33 4.34 -2.66 3.68 -3 3 C-2.34 3 -1.68 3 -1 3 C-0.67 2.01 -0.34 1.02 0 0 Z " fill="#607089" transform="translate(917,240)"/>
<path d="M0 0 C1.32 1.32 2.64 2.64 4 4 C3.67 4.66 3.34 5.32 3 6 C1.02 6 -0.96 6 -3 6 C-3 5.01 -3 4.02 -3 3 C-2.01 2.67 -1.02 2.34 0 2 C0 1.34 0 0.68 0 0 Z " fill="#E0E7E8" transform="translate(742,212)"/>
<path d="M0 0 C0.86625 0.37125 0.86625 0.37125 1.75 0.75 C-2 3.75 -2 3.75 -4.25 3.75 C-4.58 5.07 -4.91 6.39 -5.25 7.75 C-6 6 -6 6 -6.25 3.75 C-3.25 -0.36111111 -3.25 -0.36111111 0 0 Z " fill="#8FC3B1" transform="translate(172.25,208.25)"/>
<path d="M0 0 C3.43183318 0.84044894 5.48528134 1.48528134 8 4 C5.125 4.625 5.125 4.625 2 5 C1.34 4.34 0.68 3.68 0 3 C-0.99 2.67 -1.98 2.34 -3 2 C-2.01 1.34 -1.02 0.68 0 0 Z " fill="#E4ECF2" transform="translate(452,178)"/>
<path d="M0 0 C4.67692308 1.47692308 4.67692308 1.47692308 6.3125 4.125 C6.539375 4.74375 6.76625 5.3625 7 6 C5.68 6 4.36 6 3 6 C3 5.34 3 4.68 3 4 C2.01 4 1.02 4 0 4 C0 2.68 0 1.36 0 0 Z " fill="#5F6C87" transform="translate(470,160)"/>
<path d="M0 0 C2.18092036 2.07858979 3.96390469 4.21856618 5.6875 6.6875 C6.12449219 7.31011719 6.56148437 7.93273437 7.01171875 8.57421875 C7.33785156 9.04472656 7.66398438 9.51523437 8 10 C7.34 10.66 6.68 11.32 6 12 C6 11.34 6 10.68 6 10 C5.34 10 4.68 10 4 10 C3.32845067 8.71086513 2.66291141 7.41859796 2 6.125 C1.62875 5.40570313 1.2575 4.68640625 0.875 3.9453125 C0 2 0 2 0 0 Z " fill="#CFD7E0" transform="translate(693,251)"/>
<path d="M0 0 C0.33 0.99 0.66 1.98 1 3 C0.34 3.66 -0.32 4.32 -1 5 C-1.70710678 6.64991582 -2.37943989 8.31562256 -3 10 C-3.99 9.67 -4.98 9.34 -6 9 C-4.47291037 5.56404834 -2.40072955 2.88087546 0 0 Z " fill="#6C768A" transform="translate(403,244)"/>
<path d="M0 0 C0.99 0.33 1.98 0.66 3 1 C3.6875 3.0625 3.6875 3.0625 4 5 C-1.53846154 4.38461538 -1.53846154 4.38461538 -3.875 2.4375 C-4.24625 1.963125 -4.6175 1.48875 -5 1 C-3.35 1 -1.7 1 0 1 C0 0.67 0 0.34 0 0 Z " fill="#DFE5ED" transform="translate(429,243)"/>
<path d="M0 0 C-1.39332574 3.36720387 -2.9789286 4.9859524 -6 7 C-6.66 6.34 -7.32 5.68 -8 5 C-2.25 0 -2.25 0 0 0 Z " fill="#D4DCE4" transform="translate(1086,212)"/>
<path d="M0 0 C2.6875 0.3125 2.6875 0.3125 5 1 C3.35 2.65 1.7 4.3 0 6 C-0.33 5.34 -0.66 4.68 -1 4 C-1.66 3.67 -2.32 3.34 -3 3 C-1.8125 1.4375 -1.8125 1.4375 0 0 Z " fill="#64738C" transform="translate(717,210)"/>
<path d="M0 0 C5.37305699 -0.35233161 5.37305699 -0.35233161 8 0 C10 2 10 2 11 4 C7.0507432 3.44894091 3.65079826 2.61064629 0 1 C0 0.67 0 0.34 0 0 Z " fill="#6D7995" transform="translate(523,269)"/>
<path d="M0 0 C-0.625 2.4375 -0.625 2.4375 -2 5 C-5.125 5.8125 -5.125 5.8125 -8 6 C-3.38461538 0 -3.38461538 0 0 0 Z " fill="#94C5B4" transform="translate(202,242)"/>
<path d="M0 0 C0.99 0.33 1.98 0.66 3 1 C3 4 3 4 1.125 6.0625 C0.42375 6.701875 -0.2775 7.34125 -1 8 C-1.66 8.66 -2.32 9.32 -3 10 C-2.49287967 6.28111761 -1.88391785 3.26545761 0 0 Z " fill="#D1D7DD" transform="translate(1020,220)"/>
<path d="M0 0 C7.57142857 1.85714286 7.57142857 1.85714286 10 5 C7 6 7 6 3.875 4.75 C1 3 1 3 0 0 Z " fill="#D9E2E9" transform="translate(433,192)"/>
<path d="M0 0 C0.66 0.33 1.32 0.66 2 1 C1.67 1.99 1.34 2.98 1 4 C0.01 4.33 -0.98 4.66 -2 5 C-2.309375 5.66 -2.61875 6.32 -2.9375 7 C-4 9 -4 9 -6.125 9.75 C-7.053125 9.87375 -7.053125 9.87375 -8 10 C-8 9.34 -8 8.68 -8 8 C-6.50390625 6.5625 -6.50390625 6.5625 -4.5625 5 C-1.84811762 2.85474956 -1.84811762 2.85474956 0 0 Z " fill="#BFDFD3" transform="translate(198,182)"/>
<path d="M0 0 C-0.99 1.485 -0.99 1.485 -2 3 C-4.8203125 3.29296875 -4.8203125 3.29296875 -8.125 3.1875 C-9.76855469 3.14689453 -9.76855469 3.14689453 -11.4453125 3.10546875 C-12.28835938 3.07066406 -13.13140625 3.03585938 -14 3 C-9.25294723 -0.16470185 -5.68228705 -0.10927475 0 0 Z " fill="#768092" transform="translate(1043,185)"/>
<path d="M0 0 C0 0.99 0 1.98 0 3 C-0.99 3.33 -1.98 3.66 -3 4 C-4.20882096 6.00016466 -4.20882096 6.00016466 -5 8 C-5.66 8 -6.32 8 -7 8 C-7 7.01 -7 6.02 -7 5 C-6.01 5 -5.02 5 -4 5 C-3.896875 4.360625 -3.79375 3.72125 -3.6875 3.0625 C-3.460625 2.381875 -3.23375 1.70125 -3 1 C-2.01 0.67 -1.02 0.34 0 0 Z " fill="#85BDAB" transform="translate(205,174)"/>
<path d="M0 0 C-6.16981132 4.11320755 -6.16981132 4.11320755 -9.75 3.625 C-10.4925 3.41875 -11.235 3.2125 -12 3 C-4.82142857 -1.78571429 -4.82142857 -1.78571429 0 0 Z " fill="#7B869C" transform="translate(433,154)"/>
<path d="M0 0 C-0.66 0 -1.32 0 -2 0 C-2 0.66 -2 1.32 -2 2 C-3.96466413 3.06775224 -5.96855359 4.06553465 -8 5 C-8.66 4.67 -9.32 4.34 -10 4 C-4.75 -1.425 -4.75 -1.425 0 0 Z " fill="#6A798F" transform="translate(610,153)"/>
<path d="M0 0 C1.9375 0.375 1.9375 0.375 4 1 C4.33 1.66 4.66 2.32 5 3 C4.05125 3.103125 3.1025 3.20625 2.125 3.3125 C-1.29107501 3.68539295 -1.29107501 3.68539295 -3 7 C-3.66 6.67 -4.32 6.34 -5 6 C-3.35 4.02 -1.7 2.04 0 0 Z " fill="#BDE1D2" transform="translate(227,153)"/>
<path d="M0 0 C3.3 0 6.6 0 10 0 C10 0.66 10 1.32 10 2 C3.375 3.125 3.375 3.125 0 2 C0 1.34 0 0.68 0 0 Z " fill="#88BFAF" transform="translate(267,132)"/>
<path d="M0 0 C2.97 0 5.94 0 9 0 C9 0.66 9 1.32 9 2 C6.69 2.33 4.38 2.66 2 3 C1.34 2.01 0.68 1.02 0 0 Z " fill="#8ABEAE" transform="translate(237,132)"/>
<path d="M0 0 C2.10827055 3.16240582 2.33817465 4.50657469 2.625 8.1875 C2.69976563 9.08855469 2.77453125 9.98960937 2.8515625 10.91796875 C2.90054687 11.60503906 2.94953125 12.29210937 3 13 C2.34 13 1.68 13 1 13 C-0.10228696 8.59085217 -0.07654536 4.51617599 0 0 Z " fill="#EBECF3" transform="translate(1075,226)"/>
<path d="M0 0 C0.99 0.33 1.98 0.66 3 1 C-0.465 3.97 -0.465 3.97 -4 7 C-3.6875 4.625 -3.6875 4.625 -3 2 C-2.01 1.34 -1.02 0.68 0 0 Z " fill="#83BDA9" transform="translate(151,227)"/>
<path d="M0 0 C1.09570312 0.00902344 2.19140625 0.01804688 3.3203125 0.02734375 C4.16335938 0.03894531 5.00640625 0.05054688 5.875 0.0625 C2.2106845 2.505377 0.18946191 2.14094476 -4.125 2.0625 C-5.115 2.5575 -5.115 2.5575 -6.125 3.0625 C-6.785 2.4025 -7.445 1.7425 -8.125 1.0625 C-5.36047967 -0.31976016 -3.0788637 -0.03275387 0 0 Z " fill="#D5DEE8" transform="translate(829.125,209.9375)"/>
<path d="M0 0 C0.66 1.32 1.32 2.64 2 4 C0.68 4.99 -0.64 5.98 -2 7 C-2.66 6.01 -3.32 5.02 -4 4 C-2.68 2.68 -1.36 1.36 0 0 Z " fill="#63748D" transform="translate(705,195)"/>
<path d="M0 0 C0.33 0.66 0.66 1.32 1 2 C0.34 2 -0.32 2 -1 2 C-1.33 3.65 -1.66 5.3 -2 7 C-3.65 6.67 -5.3 6.34 -7 6 C-2.25 1.125 -2.25 1.125 0 0 Z " fill="#68748E" transform="translate(521,192)"/>
<path d="M0 0 C0.99 0.33 1.98 0.66 3 1 C2.01 2.485 2.01 2.485 1 4 C0.34 4 -0.32 4 -1 4 C-1.33 4.99 -1.66 5.98 -2 7 C-2.66 7 -3.32 7 -4 7 C-4 6.01 -4 5.02 -4 4 C-3.34 4 -2.68 4 -2 4 C-1.34 2.68 -0.68 1.36 0 0 Z " fill="#DBE3E6" transform="translate(801,193)"/>
<path d="M0 0 C0.6875 1.625 0.6875 1.625 1 4 C-0.4375 7.25 -0.4375 7.25 -2 10 C-2.66 9.34 -3.32 8.68 -4 8 C-2.99983813 4.9995144 -1.6627026 2.67478244 0 0 Z " fill="#DFE6ED" transform="translate(408,164)"/>
<path d="M0 0 C4.455 0.99 4.455 0.99 9 2 C9 2.66 9 3.32 9 4 C6.36 3.67 3.72 3.34 1 3 C0.67 2.01 0.34 1.02 0 0 Z " fill="#5F6D82" transform="translate(419,267)"/>
<path d="M0 0 C5.75 -0.125 5.75 -0.125 8 1 C7.67 1.66 7.34 2.32 7 3 C4 4 4 4 1.8125 3.0625 C1.214375 2.711875 0.61625 2.36125 0 2 C0 1.34 0 0.68 0 0 Z " fill="#6B778D" transform="translate(912,267)"/>
<path d="M0 0 C0.33 0.66 0.66 1.32 1 2 C3.02463255 2.65213292 3.02463255 2.65213292 5 3 C1.18243176 4.37432457 -2.07255329 3.67975039 -6 3 C-3 1 -3 1 0 0 Z " fill="#62759A" transform="translate(742,248)"/>
<path d="M0 0 C2.475 0.495 2.475 0.495 5 1 C4.67 2.65 4.34 4.3 4 6 C3.34 6 2.68 6 2 6 C0 3 0 3 0 0 Z " fill="#5A6880" transform="translate(504,248)"/>
<path d="M0 0 C0.28875 0.639375 0.5775 1.27875 0.875 1.9375 C1.82823451 4.15206079 1.82823451 4.15206079 4 5 C3.34 5 2.68 5 2 5 C2.33 6.32 2.66 7.64 3 9 C0.9375 7.3125 0.9375 7.3125 -1 5 C-0.75 2.25 -0.75 2.25 0 0 Z " fill="#5B677F" transform="translate(693,244)"/>
<path d="M0 0 C1.65 1.65 3.3 3.3 5 5 C4.67 5.66 4.34 6.32 4 7 C2.68 7 1.36 7 0 7 C0 4.69 0 2.38 0 0 Z " fill="#D9E0E5" transform="translate(1109,216)"/>
<path d="M0 0 C1.65 0.99 3.3 1.98 5 3 C4.67 3.99 4.34 4.98 4 6 C2.68 5.67 1.36 5.34 0 5 C0 4.34 0 3.68 0 3 C-0.66 2.67 -1.32 2.34 -2 2 C-1.34 2 -0.68 2 0 2 C0 1.34 0 0.68 0 0 Z " fill="#556586" transform="translate(418,208)"/>
<path d="M0 0 C-0.33 0.66 -0.66 1.32 -1 2 C-2.11375 1.979375 -3.2275 1.95875 -4.375 1.9375 C-7.83215921 1.73619282 -7.83215921 1.73619282 -10 3 C-10.66 2.34 -11.32 1.68 -12 1 C-7.53763531 -0.80619523 -4.68965706 -1.11658501 0 0 Z " fill="#667590" transform="translate(1032,189)"/>
<path d="M0 0 C4.55015893 1.51671964 6.50057264 5.16891053 9 9 C6.625 8.8125 6.625 8.8125 4 8 C2.8125 5.625 2.8125 5.625 2 3 C1.34 2.01 0.68 1.02 0 0 Z " fill="#B7DBCF" transform="translate(248,172)"/>
<path d="M0 0 C0.66 0 1.32 0 2 0 C3.01866229 1.65532623 4.01810813 3.32260138 5 5 C5.66 5.33 6.32 5.66 7 6 C6.67 6.99 6.34 7.98 6 9 C4.99406757 7.8803014 3.9954151 6.7540588 3 5.625 C2.443125 4.99851562 1.88625 4.37203125 1.3125 3.7265625 C0 2 0 2 0 0 Z " fill="#5C6D83" transform="translate(795,255)"/>
<path d="M0 0 C0.99 0.33 1.98 0.66 3 1 C2.67 1.99 2.34 2.98 2 4 C1.34 3.67 0.68 3.34 0 3 C-0.33 3.99 -0.66 4.98 -1 6 C-1.99 5.67 -2.98 5.34 -4 5 C-3.67 4.34 -3.34 3.68 -3 3 C-2.34 3 -1.68 3 -1 3 C-0.67 2.01 -0.34 1.02 0 0 Z " fill="#7FBCAA" transform="translate(187,255)"/>
<path d="M0 0 C1.32 0 2.64 0 4 0 C4 0.99 4 1.98 4 3 C4.66 3 5.32 3 6 3 C5.67 3.99 5.34 4.98 5 6 C3.2925002 4.71937515 1.62626404 3.38232443 0 2 C0 1.34 0 0.68 0 0 Z " fill="#DAE5EF" transform="translate(715,242)"/>
<path d="M0 0 C0.33 0.99 0.66 1.98 1 3 C1.99 2.67 2.98 2.34 4 2 C3.67 3.65 3.34 5.3 3 7 C2.34 7 1.68 7 1 7 C0.67 7.66 0.34 8.32 0 9 C0 6.03 0 3.06 0 0 Z " fill="#E9EFF4" transform="translate(523,226)"/>
<path d="M0 0 C0.33 0 0.66 0 1 0 C1 3.63 1 7.26 1 11 C0.01 10.01 -0.98 9.02 -2 8 C-1.79846293 5.15124622 -0.85624823 2.74900747 0 0 Z " fill="#DBE1E9" transform="translate(1050,225)"/>
<path d="M0 0 C2.4375 0.8125 2.4375 0.8125 5 2 C5.33 2.99 5.66 3.98 6 5 C5.34 5 4.68 5 4 5 C4 5.66 4 6.32 4 7 C3.01 6.67 2.02 6.34 1 6 C1 5 1 4 1 3 C0.67 2.01 0.34 1.02 0 0 Z " fill="#79849C" transform="translate(566,193)"/>
<path d="M0 0 C1.14926266 0.95421808 2.29430541 1.91352045 3.4375 2.875 C4.07558594 3.40867188 4.71367187 3.94234375 5.37109375 4.4921875 C7 6 7 6 8 8 C5.125 7.375 5.125 7.375 2 6 C0.625 2.875 0.625 2.875 0 0 Z " fill="#93C5B5" transform="translate(234,186)"/>
<path d="M0 0 C0.33 1.32 0.66 2.64 1 4 C-6.75 3.25 -6.75 3.25 -9 1 C-7.700625 1.020625 -6.40125 1.04125 -5.0625 1.0625 C-3.70834367 1.08399454 -2.35243917 1.07148199 -1 1 C-0.67 0.67 -0.34 0.34 0 0 Z " fill="#D9E0E9" transform="translate(849,186)"/>
<path d="M0 0 C0.66 0.99 1.32 1.98 2 3 C1.67 3.99 1.34 4.98 1 6 C-1.5625 7.1875 -1.5625 7.1875 -4 8 C-2.87548273 5.0280615 -1.77706209 2.66559313 0 0 Z " fill="#D8DEE5" transform="translate(476,178)"/>
<path d="M0 0 C0.86625 0.556875 0.86625 0.556875 1.75 1.125 C0.76 1.62 0.76 1.62 -0.25 2.125 C-0.25 2.785 -0.25 3.445 -0.25 4.125 C-1.57 4.125 -2.89 4.125 -4.25 4.125 C-4.25 3.465 -4.25 2.805 -4.25 2.125 C-4.91 1.795 -5.57 1.465 -6.25 1.125 C-2.80384615 -1.09038462 -2.80384615 -1.09038462 0 0 Z " fill="#526683" transform="translate(1113.25,265.875)"/>
<path d="M0 0 C0 3 0 3 -1 6 C-2.98 6.33 -4.96 6.66 -7 7 C-4.66666667 4.66666667 -2.33333333 2.33333333 0 0 Z " fill="#D3DCE2" transform="translate(575,260)"/>
<path d="M0 0 C2.0625 0.4375 2.0625 0.4375 4 1 C2.6875 3 2.6875 3 1 5 C0.01 5 -0.98 5 -2 5 C-1.125 1.125 -1.125 1.125 0 0 Z " fill="#DBF2E6" transform="translate(188,249)"/>
<path d="M0 0 C0.66 0.66 1.32 1.32 2 2 C2.99 2 3.98 2 5 2 C4.01 3.98 3.02 5.96 2 8 C0.23537317 4.91190305 0 3.76687864 0 0 Z " fill="#61708A" transform="translate(865,246)"/>
<path d="M0 0 C0.33 0.66 0.66 1.32 1 2 C0 5 0 5 -2.4375 6.75 C-3.7059375 7.36875 -3.7059375 7.36875 -5 8 C-5.66 7.67 -6.32 7.34 -7 7 C-4.69 4.69 -2.38 2.38 0 0 Z " fill="#9ECEBC" transform="translate(225,216)"/>
<path d="M0 0 C3.82097239 0.53069061 6.06171403 1.49701566 9 4 C6.36 3.67 3.72 3.34 1 3 C0.67 2.01 0.34 1.02 0 0 Z " fill="#DFE4ED" transform="translate(420,216)"/>
<path d="M0 0 C0.33 0.99 0.66 1.98 1 3 C0.01 4.485 0.01 4.485 -1 6 C-2.32 5.34 -3.64 4.68 -5 4 C-5 3.34 -5 2.68 -5 2 C-3.35 1.34 -1.7 0.68 0 0 Z " fill="#DBE3DB" transform="translate(463,200)"/>
<path d="M0 0 C0 0.99 0 1.98 0 3 C-2.64 3.33 -5.28 3.66 -8 4 C-5.29881977 1.17603885 -4.05589853 0 0 0 Z " fill="#6A7792" transform="translate(1079,190)"/>
<path d="M0 0 C0.99 0.33 1.98 0.66 3 1 C2.67 1.99 2.34 2.98 2 4 C0.02 4.33 -1.96 4.66 -4 5 C-3.67 4.34 -3.34 3.68 -3 3 C-2.34 3 -1.68 3 -1 3 C-0.67 2.01 -0.34 1.02 0 0 Z " fill="#E4EBF5" transform="translate(814,185)"/>
<path d="M0 0 C1.98 0.66 3.96 1.32 6 2 C6.33 3.65 6.66 5.3 7 7 C5.82780457 6.21654285 4.66236332 5.42297164 3.5 4.625 C2.8503125 4.18414062 2.200625 3.74328125 1.53125 3.2890625 C1.0259375 2.86367187 0.520625 2.43828125 0 2 C0 1.34 0 0.68 0 0 Z " fill="#B7DBCF" transform="translate(225,177)"/>
<path d="M0 0 C2.64752004 2.57784846 4.94432065 4.91648098 7 8 C5.68 7.67 4.36 7.34 3 7 C3 6.34 3 5.68 3 5 C2.34 4.67 1.68 4.34 1 4 C0.375 1.9375 0.375 1.9375 0 0 Z " fill="#CDE9DF" transform="translate(244,168)"/>
<path d="M0 0 C5.445 1.485 5.445 1.485 11 3 C9.02 3.99 9.02 3.99 7 5 C3.25 3.625 3.25 3.625 0 2 C0 1.34 0 0.68 0 0 Z " fill="#D9E2EA" transform="translate(810,270)"/>
<path d="M0 0 C1.98 0.66 3.96 1.32 6 2 C4.68 2.99 3.36 3.98 2 5 C1.67 4.34 1.34 3.68 1 3 C0.01 2.67 -0.98 2.34 -2 2 C-1.34 1.34 -0.68 0.68 0 0 Z " fill="#606F8A" transform="translate(946,266)"/>
<path d="M0 0 C2.0625 0.4375 2.0625 0.4375 4 1 C-0.75 5 -0.75 5 -3 5 C-1.125 1.125 -1.125 1.125 0 0 Z " fill="#67728C" transform="translate(472,261)"/>
<path d="M0 0 C1.98 1.65 3.96 3.3 6 5 C5.67 5.66 5.34 6.32 5 7 C4.34 7 3.68 7 3 7 C3 6.34 3 5.68 3 5 C2.34 5 1.68 5 1 5 C0.67 3.35 0.34 1.7 0 0 Z " fill="#60728C" transform="translate(750,248)"/>
<path d="M0 0 C0.66 0.33 1.32 0.66 2 1 C2 1.99 2 2.98 2 4 C1.01 4 0.02 4 -1 4 C-1.33 5.65 -1.66 7.3 -2 9 C-2.66 8.34 -3.32 7.68 -4 7 C-2.68 4.69 -1.36 2.38 0 0 Z " fill="#D6DFE7" transform="translate(482,251)"/>
<path d="M0 0 C4.67692308 1.47692308 4.67692308 1.47692308 6.3125 4.125 C6.539375 4.74375 6.76625 5.3625 7 6 C3.535 4.02 3.535 4.02 0 2 C0 1.34 0 0.68 0 0 Z " fill="#D7DEE9" transform="translate(1079,243)"/>
<path d="M0 0 C0.66 0.99 1.32 1.98 2 3 C1.67 3.66 1.34 4.32 1 5 C-1.97 4.505 -1.97 4.505 -5 4 C-3.35 2.68 -1.7 1.36 0 0 Z " fill="#D7E0E2" transform="translate(566,214)"/>
<path d="M0 0 C2.31 0.66 4.62 1.32 7 2 C6.01 3.485 6.01 3.485 5 5 C4.01 4.67 3.02 4.34 2 4 C2 3.34 2 2.68 2 2 C1.34 2 0.68 2 0 2 C0 1.34 0 0.68 0 0 Z " fill="#62708B" transform="translate(451,202)"/>
<path d="M0 0 C0.99 0.33 1.98 0.66 3 1 C2.67 1.66 2.34 2.32 2 3 C1.01 3.33 0.02 3.66 -1 4 C-1 4.99 -1 5.98 -1 7 C-1.99 6.67 -2.98 6.34 -4 6 C-1.125 1.125 -1.125 1.125 0 0 Z " fill="#6A7990" transform="translate(1007,200)"/>
<path d="M0 0 C0.99 0 1.98 0 3 0 C3 0.66 3 1.32 3 2 C3.99 2.33 4.98 2.66 6 3 C6 3.66 6 4.32 6 5 C3.69 4.34 1.38 3.68 -1 3 C-0.67 2.01 -0.34 1.02 0 0 Z " fill="#D9E3DF" transform="translate(444,196)"/>
<path d="M0 0 C0 0.99 0 1.98 0 3 C-2.97 2.67 -5.94 2.34 -9 2 C-5.23312136 0.11656068 -3.97041037 -0.22057835 0 0 Z " fill="#E7EDF1" transform="translate(1106,184)"/>
<path d="M0 0 C2.475 0.99 2.475 0.99 5 2 C5 2.99 5 3.98 5 5 C5.66 5 6.32 5 7 5 C6.67 5.66 6.34 6.32 6 7 C5.01 6.34 4.02 5.68 3 5 C3 4.34 3 3.68 3 3 C2.01 2.67 1.02 2.34 0 2 C0 1.34 0 0.68 0 0 Z " fill="#9BCCBB" transform="translate(213,178)"/>
<path d="M0 0 C0.99 0.33 1.98 0.66 3 1 C2 3 2 3 -0.375 4.1875 C-3 5 -3 5 -6 4 C-4.68 3.67 -3.36 3.34 -2 3 C-2 2.34 -2 1.68 -2 1 C-1.34 0.67 -0.68 0.34 0 0 Z " fill="#536683" transform="translate(610,152)"/>
<path d="M0 0 C2.31 0 4.62 0 7 0 C7 0.99 7 1.98 7 3 C4.69 3 2.38 3 0 3 C0 2.01 0 1.02 0 0 Z " fill="#E0F2ED" transform="translate(110,128)"/>
</svg>
