<?xml version="1.0" encoding="UTF-8"?>
<svg version="1.1" xmlns="http://www.w3.org/2000/svg" width="165" height="164">
<path d="M0 0 C1.2375 0.1546875 1.2375 0.1546875 2.5 0.3125 C4.9294516 3.9566774 4.66179575 6.02491272 4.5 10.3125 C8.13 10.3125 11.76 10.3125 15.5 10.3125 C15.479375 8.848125 15.45875 7.38375 15.4375 5.875 C15.41607993 4.35417482 15.42820036 2.83178038 15.5 1.3125 C16.5 0.3125 16.5 0.3125 20.0625 0.25 C21.196875 0.270625 22.33125 0.29125 23.5 0.3125 C24.5 6.9375 24.5 6.9375 24.5 10.3125 C52.715 9.8175 52.715 9.8175 81.5 9.3125 C81.83 6.6725 82.16 4.0325 82.5 1.3125 C82.83 0.9825 83.16 0.6525 83.5 0.3125 C85.83944736 0.59980055 88.1739143 0.93186779 90.5 1.3125 C90.995 5.2725 90.995 5.2725 91.5 9.3125 C94.8 9.3125 98.1 9.3125 101.5 9.3125 C101.644375 8.013125 101.78875 6.71375 101.9375 5.375 C102.375 1.4375 102.375 1.4375 103.5 0.3125 C106.5 0.1875 106.5 0.1875 109.5 0.3125 C110.5 1.3125 110.5 1.3125 110.59765625 3.37890625 C110.58025391 4.61447266 110.58025391 4.61447266 110.5625 5.875 C110.55347656 6.70128906 110.54445312 7.52757812 110.53515625 8.37890625 C110.51775391 9.33603516 110.51775391 9.33603516 110.5 10.3125 C111.1612085 10.30726318 111.82241699 10.30202637 112.50366211 10.29663086 C115.48159851 10.27592344 118.45951982 10.26285988 121.4375 10.25 C122.99887695 10.23743164 122.99887695 10.23743164 124.59179688 10.22460938 C126.07583008 10.21977539 126.07583008 10.21977539 127.58984375 10.21484375 C128.50628662 10.20960693 129.42272949 10.20437012 130.36694336 10.19897461 C132.5 10.3125 132.5 10.3125 133.5 11.3125 C133.59662973 13.248783 133.62187144 15.18864262 133.62025452 17.12733459 C133.62231651 19.02258125 133.62231651 19.02258125 133.62442017 20.95611572 C133.62088055 22.36926293 133.61724574 23.7824099 133.61352539 25.19555664 C133.61324353 26.67351784 133.61340124 28.15147919 133.6139679 29.62944031 C133.6142559 33.65405828 133.6083587 37.67864672 133.60139394 41.7032578 C133.59516088 45.90466365 133.59455664 50.1060701 133.59336853 54.30747986 C133.59025507 62.26896257 133.58204149 70.23043162 133.57201904 78.1919083 C133.56085836 87.25342589 133.55534757 96.31494412 133.55032361 105.37646687 C133.53985888 124.021819 133.52225916 142.66715841 133.5 161.3125 C112.65586397 161.33582712 91.81173008 161.35347826 70.96758366 161.36431217 C61.28998949 161.36947553 51.61240342 161.37651897 41.93481445 161.38793945 C33.50299669 161.39788509 25.07118479 161.40435314 16.63936132 161.40658849 C12.17192608 161.40789581 7.7045076 161.41098295 3.23707771 161.41823006 C-0.9628416 161.42498838 -5.16273713 161.42711735 -9.36266136 161.42560768 C-10.90868509 161.42588409 -12.45470956 161.42789033 -14.00072861 161.43170547 C-16.10235776 161.4366398 -18.20389572 161.43549928 -20.30552673 161.43275452 C-22.07398657 161.43413721 -22.07398657 161.43413721 -23.87817287 161.43554783 C-26.5 161.3125 -26.5 161.3125 -27.5 160.3125 C-27.60096207 158.40616842 -27.63077202 156.49605238 -27.63371277 154.58705139 C-27.63797775 153.34327225 -27.64224274 152.0994931 -27.64663696 150.81802368 C-27.6462874 149.42694089 -27.64582584 148.03585812 -27.64526367 146.64477539 C-27.64825356 145.1897625 -27.65165569 143.73475041 -27.65544128 142.27973938 C-27.66430282 138.31697655 -27.6666203 134.35423529 -27.66725707 130.39146352 C-27.66820439 127.08859827 -27.67188063 123.78573811 -27.67542917 120.48287481 C-27.68358191 112.69341459 -27.68601265 104.90396594 -27.68530273 97.11450195 C-27.68470172 89.06710944 -27.69525645 81.01978391 -27.7110464 72.97240835 C-27.72410205 66.07389702 -27.72948747 59.17540762 -27.72884732 52.27688402 C-27.72859175 48.15202924 -27.73147527 44.02723396 -27.74202538 39.90239143 C-27.75167325 36.02416858 -27.75180847 32.14606248 -27.74450874 28.26783562 C-27.74345876 26.84155991 -27.74585015 25.41527706 -27.7518692 23.98901367 C-27.75953355 22.04766771 -27.75377031 20.10628235 -27.74723816 18.16493225 C-27.74805531 16.53254152 -27.74805531 16.53254152 -27.74888897 14.86717319 C-27.5 12.3125 -27.5 12.3125 -25.5 10.3125 C-23.34521484 10.08544922 -23.34521484 10.08544922 -20.7109375 10.1171875 C-19.76992188 10.12363281 -18.82890625 10.13007813 -17.859375 10.13671875 C-16.87453125 10.15347656 -15.8896875 10.17023437 -14.875 10.1875 C-13.88242188 10.19652344 -12.88984375 10.20554687 -11.8671875 10.21484375 C-9.41121866 10.23845884 -6.95572832 10.27139201 -4.5 10.3125 C-4.54125 9.03375 -4.5825 7.755 -4.625 6.4375 C-4.6953125 4.2578125 -4.6953125 4.2578125 -4.5 2.3125 C-2.5 0.3125 -2.5 0.3125 0 0 Z M-2.5 12.3125 C-2.5 17.2625 -2.5 22.2125 -2.5 27.3125 C-0.85 26.9825 0.8 26.6525 2.5 26.3125 C2.5 21.6925 2.5 17.0725 2.5 12.3125 C0.85 12.3125 -0.8 12.3125 -2.5 12.3125 Z M17.5 12.3125 C17.5 17.2625 17.5 22.2125 17.5 27.3125 C19.15 27.3125 20.8 27.3125 22.5 27.3125 C22.5 22.3625 22.5 17.4125 22.5 12.3125 C20.85 12.3125 19.2 12.3125 17.5 12.3125 Z M84.5 12.3125 C83.16098208 13.42376659 83.16098208 13.42376659 83.40234375 16.25390625 C83.41394531 17.44886719 83.42554687 18.64382812 83.4375 19.875 C83.44652344 21.07253906 83.45554687 22.27007812 83.46484375 23.50390625 C83.47644531 24.43074219 83.48804687 25.35757812 83.5 26.3125 C85.975 26.8075 85.975 26.8075 88.5 27.3125 C90.0111995 22.27516834 89.14599773 17.43078973 88.5 12.3125 C87.18 12.3125 85.86 12.3125 84.5 12.3125 Z M104.5 12.3125 C103.13467451 13.44951597 103.13467451 13.44951597 103.40234375 16.47265625 C103.41394531 17.76042969 103.42554688 19.04820313 103.4375 20.375 C103.44652344 21.66535156 103.45554688 22.95570312 103.46484375 24.28515625 C103.47644531 25.28417969 103.48804688 26.28320312 103.5 27.3125 C105.15 27.3125 106.8 27.3125 108.5 27.3125 C109.59651823 23.90110997 109.44215473 21.10594419 109.0625 17.5625 C108.90974609 16.08523437 108.90974609 16.08523437 108.75390625 14.578125 C108.67011719 13.83046875 108.58632812 13.0828125 108.5 12.3125 C107.18 12.3125 105.86 12.3125 104.5 12.3125 Z M73.89453125 44.84375 C73.37246094 45.4934375 72.85039063 46.143125 72.3125 46.8125 C71.78269531 47.4621875 71.25289063 48.111875 70.70703125 48.78125 C70.30871094 49.2865625 69.91039063 49.791875 69.5 50.3125 C70.9264578 53.5711636 72.66704162 55.7149854 75.1953125 58.203125 C75.91074219 58.91210938 76.62617187 59.62109375 77.36328125 60.3515625 C78.10964844 61.08117187 78.85601562 61.81078125 79.625 62.5625 C80.37910156 63.30757812 81.13320312 64.05265625 81.91015625 64.8203125 C83.76900772 66.6556342 85.63237005 68.4861191 87.5 70.3125 C91.26488042 68.59095212 93.65063897 66.32015886 96.5 63.3125 C95.05774399 59.9744951 93.24778144 57.87406534 90.625 55.375 C87.663271 52.4988083 85.07945832 49.53682289 82.5 46.3125 C79.61605745 43.77812624 77.1924732 41.69826766 73.89453125 44.84375 Z M58.70874023 60.82910156 C57.93130966 61.59700012 57.15387909 62.36489868 56.35289001 63.15606689 C55.51327225 63.99659607 54.67365448 64.83712524 53.80859375 65.703125 C52.94814957 66.55928406 52.08770538 67.41544312 51.20118713 68.29754639 C49.37871903 70.11425938 47.55888282 71.93361576 45.74145508 73.75537109 C42.95456179 76.5454189 40.15464644 79.32191184 37.35351562 82.09765625 C35.58773085 83.86116768 33.82273054 85.62546501 32.05859375 87.390625 C31.21695175 88.22305725 30.37530975 89.0554895 29.50816345 89.91314697 C28.73388504 90.69365417 27.95960663 91.47416138 27.16186523 92.27832031 C26.47728745 92.96226868 25.79270966 93.64621704 25.08738708 94.35089111 C23.43930955 96.38749805 22.897439 97.75040633 22.5 100.3125 C23.180625 100.8075 23.86125 101.3025 24.5625 101.8125 C28.8257625 105.44080851 32.29351497 109.72307128 35.91796875 113.9765625 C37.284177 115.54512253 37.284177 115.54512253 39.5 117.3125 C44.04860934 116.79587375 46.47283706 113.7017835 49.5078125 110.5625 C50.07450653 109.98918945 50.64120056 109.41587891 51.22506714 108.82519531 C53.03228284 106.99459259 54.82902745 105.1541288 56.625 103.3125 C58.42980955 101.47264095 60.23673489 99.63493121 62.0463562 97.79980469 C63.17140294 96.65776619 64.29335049 95.51266479 65.41189575 94.36425781 C69.27859672 90.42320164 69.27859672 90.42320164 71.5 89.3125 C71.5 88.6525 71.5 87.9925 71.5 87.3125 C72.16 87.3125 72.82 87.3125 73.5 87.3125 C73.5 86.6525 73.5 85.9925 73.5 85.3125 C74.056875 85.10625 74.61375 84.9 75.1875 84.6875 C78.42501302 82.76249226 80.18231141 80.27399098 82.5 77.3125 C81.07937485 74.0856002 79.35754559 71.91307488 76.875 69.421875 C76.16859375 68.71289062 75.4621875 68.00390625 74.734375 67.2734375 C73.62835938 66.17902344 73.62835938 66.17902344 72.5 65.0625 C71.76265625 64.31742187 71.0253125 63.57234375 70.265625 62.8046875 C69.55921875 62.10085937 68.8528125 61.39703125 68.125 60.671875 C67.15433594 59.70459473 67.15433594 59.70459473 66.1640625 58.71777344 C62.79696533 55.87431521 61.37400244 58.18175647 58.70874023 60.82910156 Z M17.5 106.3125 C16.16108439 109.60192366 14.82982297 112.89439109 13.5 116.1875 C12.92765625 117.59322266 12.92765625 117.59322266 12.34375 119.02734375 C11.9828125 119.92324219 11.621875 120.81914063 11.25 121.7421875 C10.91484375 122.56960449 10.5796875 123.39702148 10.234375 124.24951172 C9.38821281 126.26156304 9.38821281 126.26156304 9.5 128.3125 C15.29859195 127.74439471 20.47686594 126.57570265 26 124.75 C26.72703125 124.51603516 27.4540625 124.28207031 28.203125 124.04101562 C29.97080261 123.47117219 31.73570969 122.89274596 33.5 122.3125 C30.39983263 115.77549551 25.38365656 110.4918228 19.5 106.3125 C18.84 106.3125 18.18 106.3125 17.5 106.3125 Z " fill="#6FBDA7" transform="translate(29.5,0.6875)"/>
<path d="M0 0 C1.2375 0.1546875 1.2375 0.1546875 2.5 0.3125 C4.9294516 3.9566774 4.66179575 6.02491272 4.5 10.3125 C8.13 10.3125 11.76 10.3125 15.5 10.3125 C15.479375 8.848125 15.45875 7.38375 15.4375 5.875 C15.41607993 4.35417482 15.42820036 2.83178038 15.5 1.3125 C16.5 0.3125 16.5 0.3125 20.0625 0.25 C21.196875 0.270625 22.33125 0.29125 23.5 0.3125 C24.5 6.9375 24.5 6.9375 24.5 10.3125 C52.715 9.8175 52.715 9.8175 81.5 9.3125 C81.83 6.6725 82.16 4.0325 82.5 1.3125 C82.83 0.9825 83.16 0.6525 83.5 0.3125 C85.83944736 0.59980055 88.1739143 0.93186779 90.5 1.3125 C90.995 5.2725 90.995 5.2725 91.5 9.3125 C94.8 9.3125 98.1 9.3125 101.5 9.3125 C101.644375 8.013125 101.78875 6.71375 101.9375 5.375 C102.375 1.4375 102.375 1.4375 103.5 0.3125 C106.5 0.1875 106.5 0.1875 109.5 0.3125 C110.5 1.3125 110.5 1.3125 110.59765625 3.37890625 C110.58025391 4.61447266 110.58025391 4.61447266 110.5625 5.875 C110.55347656 6.70128906 110.54445312 7.52757812 110.53515625 8.37890625 C110.51775391 9.33603516 110.51775391 9.33603516 110.5 10.3125 C111.1612085 10.30726318 111.82241699 10.30202637 112.50366211 10.29663086 C115.48159851 10.27592344 118.45951982 10.26285988 121.4375 10.25 C122.99887695 10.23743164 122.99887695 10.23743164 124.59179688 10.22460938 C126.07583008 10.21977539 126.07583008 10.21977539 127.58984375 10.21484375 C128.50628662 10.20960693 129.42272949 10.20437012 130.36694336 10.19897461 C132.5 10.3125 132.5 10.3125 133.5 11.3125 C133.59662973 13.248783 133.62187144 15.18864262 133.62025452 17.12733459 C133.62231651 19.02258125 133.62231651 19.02258125 133.62442017 20.95611572 C133.62088055 22.36926293 133.61724574 23.7824099 133.61352539 25.19555664 C133.61324353 26.67351784 133.61340124 28.15147919 133.6139679 29.62944031 C133.6142559 33.65405828 133.6083587 37.67864672 133.60139394 41.7032578 C133.59516088 45.90466365 133.59455664 50.1060701 133.59336853 54.30747986 C133.59025507 62.26896257 133.58204149 70.23043162 133.57201904 78.1919083 C133.56085836 87.25342589 133.55534757 96.31494412 133.55032361 105.37646687 C133.53985888 124.021819 133.52225916 142.66715841 133.5 161.3125 C112.65586397 161.33582712 91.81173008 161.35347826 70.96758366 161.36431217 C61.28998949 161.36947553 51.61240342 161.37651897 41.93481445 161.38793945 C33.50299669 161.39788509 25.07118479 161.40435314 16.63936132 161.40658849 C12.17192608 161.40789581 7.7045076 161.41098295 3.23707771 161.41823006 C-0.9628416 161.42498838 -5.16273713 161.42711735 -9.36266136 161.42560768 C-10.90868509 161.42588409 -12.45470956 161.42789033 -14.00072861 161.43170547 C-16.10235776 161.4366398 -18.20389572 161.43549928 -20.30552673 161.43275452 C-22.07398657 161.43413721 -22.07398657 161.43413721 -23.87817287 161.43554783 C-26.5 161.3125 -26.5 161.3125 -27.5 160.3125 C-27.60096207 158.40616842 -27.63077202 156.49605238 -27.63371277 154.58705139 C-27.63797775 153.34327225 -27.64224274 152.0994931 -27.64663696 150.81802368 C-27.6462874 149.42694089 -27.64582584 148.03585812 -27.64526367 146.64477539 C-27.64825356 145.1897625 -27.65165569 143.73475041 -27.65544128 142.27973938 C-27.66430282 138.31697655 -27.6666203 134.35423529 -27.66725707 130.39146352 C-27.66820439 127.08859827 -27.67188063 123.78573811 -27.67542917 120.48287481 C-27.68358191 112.69341459 -27.68601265 104.90396594 -27.68530273 97.11450195 C-27.68470172 89.06710944 -27.69525645 81.01978391 -27.7110464 72.97240835 C-27.72410205 66.07389702 -27.72948747 59.17540762 -27.72884732 52.27688402 C-27.72859175 48.15202924 -27.73147527 44.02723396 -27.74202538 39.90239143 C-27.75167325 36.02416858 -27.75180847 32.14606248 -27.74450874 28.26783562 C-27.74345876 26.84155991 -27.74585015 25.41527706 -27.7518692 23.98901367 C-27.75953355 22.04766771 -27.75377031 20.10628235 -27.74723816 18.16493225 C-27.74805531 16.53254152 -27.74805531 16.53254152 -27.74888897 14.86717319 C-27.5 12.3125 -27.5 12.3125 -25.5 10.3125 C-23.34521484 10.08544922 -23.34521484 10.08544922 -20.7109375 10.1171875 C-19.76992188 10.12363281 -18.82890625 10.13007813 -17.859375 10.13671875 C-16.87453125 10.15347656 -15.8896875 10.17023437 -14.875 10.1875 C-13.88242188 10.19652344 -12.88984375 10.20554687 -11.8671875 10.21484375 C-9.41121866 10.23845884 -6.95572832 10.27139201 -4.5 10.3125 C-4.54125 9.03375 -4.5825 7.755 -4.625 6.4375 C-4.6953125 4.2578125 -4.6953125 4.2578125 -4.5 2.3125 C-2.5 0.3125 -2.5 0.3125 0 0 Z M-2.5 12.3125 C-2.5 17.2625 -2.5 22.2125 -2.5 27.3125 C-0.85 26.9825 0.8 26.6525 2.5 26.3125 C2.5 21.6925 2.5 17.0725 2.5 12.3125 C0.85 12.3125 -0.8 12.3125 -2.5 12.3125 Z M17.5 12.3125 C17.5 17.2625 17.5 22.2125 17.5 27.3125 C19.15 27.3125 20.8 27.3125 22.5 27.3125 C22.5 22.3625 22.5 17.4125 22.5 12.3125 C20.85 12.3125 19.2 12.3125 17.5 12.3125 Z M-23.5 12.3125 C-25.72700989 15.65301484 -25.76923793 16.7974124 -25.8347168 20.70507812 C-25.85775879 21.82687469 -25.88080078 22.94867126 -25.90454102 24.10446167 C-25.91928467 25.33842682 -25.93402832 26.57239197 -25.94921875 27.84375 C-25.97145508 29.14676056 -25.99369141 30.44977112 -26.01660156 31.79226685 C-26.07591096 35.38177942 -26.12074627 38.97133626 -26.16140366 42.56110382 C-26.1874583 44.80890201 -26.21681035 47.05663588 -26.24697876 49.30438232 C-26.56727647 73.67884038 -26.50884781 98.04715196 -26.21677017 122.42160034 C-26.1874465 124.94209842 -26.16144853 127.4626136 -26.13607788 129.9831543 C-26.0949939 133.95116385 -26.042871 137.91887594 -25.98156738 141.88662338 C-25.96017178 143.35159915 -25.94194182 144.81662492 -25.92703247 146.28168106 C-25.90568143 148.28117189 -25.87058653 150.28050209 -25.8347168 152.27978516 C-25.81837692 153.40260895 -25.80203705 154.52543274 -25.78520203 155.68228149 C-25.76097334 158.46936622 -25.76097334 158.46936622 -23.5 160.3125 C-20.68888649 160.61231266 -20.68888649 160.61231266 -17.33712769 160.55300903 C-16.02177032 160.55575836 -14.70641296 160.55850769 -13.35119629 160.56134033 C-11.88500886 160.55426153 -10.41882235 160.5469919 -8.95263672 160.53955078 C-7.41541552 160.5389869 -5.87819378 160.53930277 -4.3409729 160.54043579 C-0.15935965 160.54101121 4.02213961 160.52922633 8.20372629 160.51528788 C12.57061598 160.50281202 16.93750808 160.50161251 21.30441284 160.49923706 C29.57754149 160.49301302 37.85061748 160.47658974 46.12372291 160.45653808 C57.30050027 160.43003495 68.47729195 160.4192139 79.65409279 160.40753365 C97.26943466 160.38870977 114.88466539 160.34887027 132.5 160.3125 C132.5 111.8025 132.5 63.2925 132.5 13.3125 C130.203463 12.1642315 128.91686833 12.19688825 126.3671875 12.21484375 C125.56152344 12.21806641 124.75585938 12.22128906 123.92578125 12.22460938 C123.08402344 12.23298828 122.24226562 12.24136719 121.375 12.25 C120.10076172 12.25676758 120.10076172 12.25676758 118.80078125 12.26367188 C116.70049091 12.27547126 114.6002367 12.29340694 112.5 12.3125 C112.17 13.9625 111.84 15.6125 111.5 17.3125 C112.16 17.3125 112.82 17.3125 113.5 17.3125 C113.5 17.9725 113.5 18.6325 113.5 19.3125 C112.51 19.6425 111.52 19.9725 110.5 20.3125 C110.5 22.6225 110.5 24.9325 110.5 27.3125 C109.84 27.3125 109.18 27.3125 108.5 27.3125 C108.5 27.9725 108.5 28.6325 108.5 29.3125 C106.85 28.9825 105.2 28.6525 103.5 28.3125 C103.43941406 27.39726562 103.37882813 26.48203125 103.31640625 25.5390625 C103.23261719 24.35054687 103.14882812 23.16203125 103.0625 21.9375 C102.98128906 20.75414062 102.90007812 19.57078125 102.81640625 18.3515625 C102.68915064 15.39731099 102.68915064 15.39731099 101.5 13.3125 C99.37423218 12.84598793 99.37423218 12.84598793 96.9375 12.6875 C95.69806641 12.57535156 95.69806641 12.57535156 94.43359375 12.4609375 C93.79550781 12.41195313 93.15742187 12.36296875 92.5 12.3125 C90.36024856 16.1556614 90.42413471 18.91231303 90.5 23.3125 C90.20814937 25.3189731 89.88830401 27.32244193 89.5 29.3125 C87.52 28.6525 85.54 27.9925 83.5 27.3125 C82.51 20.3825 82.51 20.3825 81.5 13.3125 C77.14649426 12.69057061 73.51936931 12.18711702 69.23901367 12.18310547 C68.26498093 12.17995331 67.29094818 12.17680115 66.28739929 12.17355347 C65.25798721 12.1755777 64.22857513 12.17760193 63.16796875 12.1796875 C62.09501053 12.17873077 61.02205231 12.17777405 59.9165802 12.17678833 C57.65996237 12.17611037 55.40334255 12.17793775 53.14672852 12.18212891 C49.6817594 12.18750891 46.21691837 12.18215743 42.75195312 12.17578125 C40.55729138 12.17644158 38.36262971 12.17772182 36.16796875 12.1796875 C35.12843552 12.17766327 34.08890228 12.17563904 33.01786804 12.17355347 C31.58046013 12.17828171 31.58046013 12.17828171 30.11401367 12.18310547 C28.84662605 12.18429886 28.84662605 12.18429886 27.55363464 12.18551636 C25.43475488 12.18213887 25.43475488 12.18213887 23.5 13.3125 C23.58378906 14.31152344 23.66757812 15.31054688 23.75390625 16.33984375 C23.90666016 18.27537109 23.90666016 18.27537109 24.0625 20.25 C24.21912109 22.18166016 24.21912109 22.18166016 24.37890625 24.15234375 C24.43884766 25.71662109 24.43884766 25.71662109 24.5 27.3125 C23.5 28.3125 23.5 28.3125 21.125 28.4375 C18.5 28.3125 18.5 28.3125 15.5 27.3125 C15.83 22.6925 16.16 18.0725 16.5 13.3125 C12.21 12.9825 7.92 12.6525 3.5 12.3125 C3.5 17.5925 3.5 22.8725 3.5 28.3125 C1.19 27.6525 -1.12 26.9925 -3.5 26.3125 C-3.83 24.0025 -4.16 21.6925 -4.5 19.3125 C-5.16 19.3125 -5.82 19.3125 -6.5 19.3125 C-5.84 18.3225 -5.18 17.3325 -4.5 16.3125 C-4.5 15.3225 -4.5 14.3325 -4.5 13.3125 C-8.78210929 12.5079825 -12.89361326 12.12272654 -17.25 12.0625 C-18.94382812 12.02382812 -18.94382812 12.02382812 -20.671875 11.984375 C-22.07179688 12.14679687 -22.07179688 12.14679687 -23.5 12.3125 Z M84.5 12.3125 C83.16098208 13.42376659 83.16098208 13.42376659 83.40234375 16.25390625 C83.41394531 17.44886719 83.42554687 18.64382812 83.4375 19.875 C83.44652344 21.07253906 83.45554687 22.27007812 83.46484375 23.50390625 C83.47644531 24.43074219 83.48804687 25.35757812 83.5 26.3125 C85.975 26.8075 85.975 26.8075 88.5 27.3125 C90.0111995 22.27516834 89.14599773 17.43078973 88.5 12.3125 C87.18 12.3125 85.86 12.3125 84.5 12.3125 Z M104.5 12.3125 C103.13467451 13.44951597 103.13467451 13.44951597 103.40234375 16.47265625 C103.41394531 17.76042969 103.42554688 19.04820313 103.4375 20.375 C103.44652344 21.66535156 103.45554688 22.95570312 103.46484375 24.28515625 C103.47644531 25.28417969 103.48804688 26.28320312 103.5 27.3125 C105.15 27.3125 106.8 27.3125 108.5 27.3125 C109.59651823 23.90110997 109.44215473 21.10594419 109.0625 17.5625 C108.90974609 16.08523437 108.90974609 16.08523437 108.75390625 14.578125 C108.67011719 13.83046875 108.58632812 13.0828125 108.5 12.3125 C107.18 12.3125 105.86 12.3125 104.5 12.3125 Z " fill="#7AAB9A" transform="translate(29.5,0.6875)"/>
<path d="M0 0 C5.625 -0.25 5.625 -0.25 9 2 C9 2.66 9 3.32 9 4 C8.401875 3.67 7.80375 3.34 7.1875 3 C4.94613529 1.79212012 4.94613529 1.79212012 2 2 C0.54965396 3.30456502 0.54965396 3.30456502 -0.6875 5 C-1.450625 5.99 -2.21375 6.98 -3 8 C-1.60652624 11.15204981 0.02485079 13.26171773 2.4765625 15.671875 C3.146875 16.33574219 3.8171875 16.99960937 4.5078125 17.68359375 C5.20648438 18.36550781 5.90515625 19.04742187 6.625 19.75 C7.33140625 20.44738281 8.0378125 21.14476563 8.765625 21.86328125 C10.50598703 23.58012488 12.25084981 25.29211832 14 27 C17.32759923 25.44805246 19.48580485 23.69378051 22 21 C20.53023536 17.54992089 18.59081481 15.43506916 15.875 12.875 C14.54605277 11.62172237 13.24452827 10.33714433 12 9 C12 8.34 12 7.68 12 7 C12.66 7 13.32 7 14 7 C15.59878075 8.74574388 17.01415879 10.59881337 18.46484375 12.46875 C19.99262375 14.35310272 19.99262375 14.35310272 23 14 C24.13866026 16.41128054 25.02166924 18.30658436 24.9375 21 C22.76141644 25.6423116 18.52602221 28.79815136 14 31 C13.34 30.67 12.68 30.34 12 30 C12 30.66 12 31.32 12 32 C11.34 32 10.68 32 10 32 C10.144375 32.680625 10.28875 33.36125 10.4375 34.0625 C9.74799971 38.69200195 6.39818532 40.99191249 3 44 C2.01 43.505 2.01 43.505 1 43 C3.31 40.36 5.62 37.72 8 35 C6.27370154 31.54740307 5.16774527 29.92761399 2.5234375 27.328125 C1.853125 26.66425781 1.1828125 26.00039062 0.4921875 25.31640625 C-0.20648438 24.63449219 -0.90515625 23.95257813 -1.625 23.25 C-2.33140625 22.55261719 -3.0378125 21.85523437 -3.765625 21.13671875 C-5.50598703 19.41987512 -7.25084981 17.70788168 -9 16 C-12.15291011 17.39828475 -14.30070143 19.04397118 -16.74291992 21.46826172 C-17.46013718 22.17594696 -18.17735443 22.8836322 -18.91630554 23.61276245 C-19.6799794 24.37734772 -20.44365326 25.14193298 -21.23046875 25.9296875 C-22.0214949 26.71642853 -22.81252106 27.50316956 -23.6275177 28.31375122 C-25.29678949 29.97728399 -26.9634519 31.64343869 -28.62768555 33.31201172 C-31.17955635 35.8670465 -33.74446294 38.40846853 -36.31054688 40.94921875 C-37.93049789 42.56689721 -39.54966548 44.18536066 -41.16796875 45.8046875 C-41.9377153 46.5652243 -42.70746185 47.32576111 -43.50053406 48.10934448 C-44.20829483 48.82333405 -44.9160556 49.53732361 -45.64526367 50.27294922 C-46.27051437 50.8975705 -46.89576508 51.52219177 -47.53996277 52.16574097 C-49.10449358 54.13127631 -49.59643998 55.54377088 -50 58 C-48.68 58.99 -47.36 59.98 -46 61 C-46.33 61.66 -46.66 62.32 -47 63 C-49.4375 62.3125 -49.4375 62.3125 -52 61 C-53.1807689 57.71071522 -53.1157177 56.34715311 -52 53 C-51.34 53 -50.68 53 -50 53 C-50 52.34 -50 51.68 -50 51 C-49.34 51 -48.68 51 -48 51 C-48 50.34 -48 49.68 -48 49 C-46.57009872 47.76961983 -45.13469972 46.54466992 -43.6640625 45.36328125 C-40.24329458 42.56082114 -37.41218568 40.23655703 -36 36 C-33.9375 35.3125 -33.9375 35.3125 -32 35 C-32 34.34 -32 33.68 -32 33 C-29.646679 30.44496577 -27.24619234 28.19079907 -24.5 26.0625 C-20.84925512 23.05063547 -18.0963214 19.35212973 -15.125 15.6875 C-12.21797644 13.37898129 -9.63772451 13.27982496 -6 13 C-5.896875 12.0925 -5.79375 11.185 -5.6875 10.25 C-4.99350187 6.96928156 -4.29914332 5.39110905 -2 3 C-1.34 3 -0.68 3 0 3 C0 2.01 0 1.02 0 0 Z " fill="#70B19C" transform="translate(103,43)"/>
<path d="M0 0 C0 3 0 3 -1.4609375 4.68359375 C-2.09257813 5.26238281 -2.72421875 5.84117188 -3.375 6.4375 C-5.98167608 8.83499837 -7.4344974 10.84875124 -9 14 C-11.125 14.75 -11.125 14.75 -13 15 C-13.66 13.68 -14.32 12.36 -15 11 C-16.65 11 -18.3 11 -20 11 C-20.33 11.66 -20.66 12.32 -21 13 C-18.525 13.495 -18.525 13.495 -16 14 C-16.99 14.495 -16.99 14.495 -18 15 C-18.65213292 17.02463255 -18.65213292 17.02463255 -19 19 C-19.77085938 19.20496094 -20.54171875 19.40992187 -21.3359375 19.62109375 C-22.33882812 19.89050781 -23.34171875 20.15992187 -24.375 20.4375 C-25.37273438 20.70433594 -26.37046875 20.97117187 -27.3984375 21.24609375 C-29.95417701 21.90184356 -29.95417701 21.90184356 -32 23 C-34.3329866 23.04022391 -36.66706666 23.04320247 -39 23 C-35.82848903 20.88565935 -33.13567139 19.98044063 -29.5 18.875 C-28.3553125 18.52179688 -27.210625 18.16859375 -26.03125 17.8046875 C-23 17 -23 17 -20 17 C-20.5053125 16.44570312 -21.010625 15.89140625 -21.53125 15.3203125 C-22.1809375 14.59585938 -22.830625 13.87140625 -23.5 13.125 C-24.1496875 12.40570313 -24.799375 11.68640625 -25.46875 10.9453125 C-27 9 -27 9 -27 7 C-25.68 7.33 -24.36 7.66 -23 8 C-23 8.66 -23 9.32 -23 10 C-22.34 9.67 -21.68 9.34 -21 9 C-21.66 7.02 -22.32 5.04 -23 3 C-21.68103535 3.92838287 -20.37001311 4.86805732 -19.0625 5.8125 C-18.33160156 6.33457031 -17.60070312 6.85664062 -16.84765625 7.39453125 C-15 9 -15 9 -14 12 C-10.13284962 9.87753203 -7.25594323 7.47253855 -4.1875 4.3125 C-3.39730469 3.50425781 -2.60710937 2.69601563 -1.79296875 1.86328125 C-1.20128906 1.24839844 -0.60960937 0.63351563 0 0 Z " fill="#70A796" transform="translate(83,106)"/>
<path d="M0 0 C5.625 -0.25 5.625 -0.25 9 2 C9 2.66 9 3.32 9 4 C8.401875 3.67 7.80375 3.34 7.1875 3 C4.94613529 1.79212012 4.94613529 1.79212012 2 2 C0.54965396 3.30456502 0.54965396 3.30456502 -0.6875 5 C-1.450625 5.99 -2.21375 6.98 -3 8 C-1.60652624 11.15204981 0.02485079 13.26171773 2.4765625 15.671875 C3.146875 16.33574219 3.8171875 16.99960937 4.5078125 17.68359375 C5.20648438 18.36550781 5.90515625 19.04742187 6.625 19.75 C7.33140625 20.44738281 8.0378125 21.14476563 8.765625 21.86328125 C10.50598703 23.58012488 12.25084981 25.29211832 14 27 C13.67 27.66 13.34 28.32 13 29 C11.49410612 27.71520959 9.99542625 26.42195918 8.5 25.125 C7.6646875 24.40570313 6.829375 23.68640625 5.96875 22.9453125 C5.3190625 22.30335937 4.669375 21.66140625 4 21 C4 20.34 4 19.68 4 19 C3.01 18.67 2.02 18.34 1 18 C1 17.34 1 16.68 1 16 C0.34 16 -0.32 16 -1 16 C-3.1875 13.8125 -3.1875 13.8125 -5 11 C-4.83083157 7.44746291 -4.00047767 6.0007165 -2 3 C-1.34 3 -0.68 3 0 3 C0 2.01 0 1.02 0 0 Z " fill="#6EA693" transform="translate(103,43)"/>
<path d="M0 0 C0.66 0 1.32 0 2 0 C3.59878075 1.74574388 5.01415879 3.59881337 6.46484375 5.46875 C7.99262375 7.35310272 7.99262375 7.35310272 11 7 C12.13866026 9.41128054 13.02166924 11.30658436 12.9375 14 C11.52127582 17.02127825 9.51114044 18.83925125 7 21 C4.83203125 21.64453125 4.83203125 21.64453125 3 22 C3.433125 21.54109375 3.86625 21.0821875 4.3125 20.609375 C4.869375 19.99578125 5.42625 19.3821875 6 18.75 C6.556875 18.14671875 7.11375 17.5434375 7.6875 16.921875 C9.37597443 14.837347 9.37597443 14.837347 9 11 C7.02672108 8.61697162 7.02672108 8.61697162 4.5 6.375 C2.96728538 4.95108919 1.45891193 3.49943726 0 2 C0 1.34 0 0.68 0 0 Z " fill="#75AB9A" transform="translate(115,50)"/>
<path d="M0 0 C1.99954746 -0.04254356 4.00041636 -0.04080783 6 0 C7 1 7 1 7.125 3.9375 C7 7 7 7 6 9 C4.0625 9.6875 4.0625 9.6875 2 10 C1.34 9.67 0.68 9.34 0 9 C0 6.03 0 3.06 0 0 Z " fill="#7BB8A2" transform="translate(133,1)"/>
<path d="M0 0 C1.8125 0.1875 1.8125 0.1875 4 1 C5.8125 3.375 5.8125 3.375 7 6 C6.67 6.99 6.34 7.98 6 9 C5.34 9 4.68 9 4 9 C4 8.34 4 7.68 4 7 C2.906875 6.7525 1.81375 6.505 0.6875 6.25 C-3.05908409 4.97997149 -4.10595266 4.34243648 -6 1 C-5.38125 1.165 -4.7625 1.33 -4.125 1.5 C-2.03936614 2.07634644 -2.03936614 2.07634644 0 2 C0 1.34 0 0.68 0 0 Z " fill="#70B49E" transform="translate(56,107)"/>
<path d="M0 0 C1.65 0 3.3 0 5 0 C5 2.31 5 4.62 5 7 C4.01 7.33 3.02 7.66 2 8 C1.01 7.34 0.02 6.68 -1 6 C-0.67 4.02 -0.34 2.04 0 0 Z " fill="#71BCA5" transform="translate(47,4)"/>
<path d="M0 0 C0.99 0.33 1.98 0.66 3 1 C3 3.31 3 5.62 3 8 C1.02 8 -0.96 8 -3 8 C-2.37240135 5.07120629 -1.41377341 2.63904371 0 0 Z " fill="#74BBA3" transform="translate(29,2)"/>
<path d="M0 0 C1.2375 0.1546875 1.2375 0.1546875 2.5 0.3125 C4.79013653 3.7477048 4.67842973 5.297831 4.5 9.3125 C3.84 9.3125 3.18 9.3125 2.5 9.3125 C2.17 7.0025 1.84 4.6925 1.5 2.3125 C0.84 2.3125 0.18 2.3125 -0.5 2.3125 C-1.49 4.2925 -2.48 6.2725 -3.5 8.3125 C-3.83 8.3125 -4.16 8.3125 -4.5 8.3125 C-4.625 5.4375 -4.625 5.4375 -4.5 2.3125 C-2.5 0.3125 -2.5 0.3125 0 0 Z " fill="#74A491" transform="translate(29.5,0.6875)"/>
<path d="M0 0 C1.875 0.3125 1.875 0.3125 4 1 C6 4 6 4 6.5625 6.25 C5.65523229 10.68553102 2.30099574 13.07794509 -1 16 C-1.66 15.67 -2.32 15.34 -3 15 C-0.69 12.36 1.62 9.72 4 7 C2.14470719 3.08268982 2.14470719 3.08268982 0 0 Z " fill="#71A794" transform="translate(107,71)"/>
<path d="M0 0 C3.96 0.33 7.92 0.66 12 1 C12.33 2.32 12.66 3.64 13 5 C9.7 4.34 6.4 3.68 3 3 C2.67 4.32 2.34 5.64 2 7 C1.34 7 0.68 7 0 7 C0 4.69 0 2.38 0 0 Z " fill="#79B6A1" transform="translate(119,11)"/>
<path d="M0 0 C2.31 0 4.62 0 7 0 C7.33 1.98 7.66 3.96 8 6 C7.01 6.495 7.01 6.495 6 7 C6 5.68 6 4.36 6 3 C4.02 3.33 2.04 3.66 0 4 C0 2.68 0 1.36 0 0 Z " fill="#86B39D" transform="translate(46,1)"/>
<path d="M0 0 C4.875 2.625 4.875 2.625 6 6 C1.25 7.125 1.25 7.125 -1 6 C-0.67 4.02 -0.34 2.04 0 0 Z " fill="#77BAA4" transform="translate(114,4)"/>
<path d="M0 0 C0.33 0 0.66 0 1 0 C1 3.96 1 7.92 1 12 C0.34 11.67 -0.32 11.34 -1 11 C-1.4140625 8.93359375 -1.4140625 8.93359375 -1.625 6.4375 C-1.69976563 5.61121094 -1.77453125 4.78492188 -1.8515625 3.93359375 C-1.90054687 3.29550781 -1.94953125 2.65742188 -2 2 C-1.34 2 -0.68 2 0 2 C0 1.34 0 0.68 0 0 Z " fill="#76AA9A" transform="translate(26,16)"/>
<path d="M0 0 C0.33 0.66 0.66 1.32 1 2 C0.22265625 4.1640625 0.22265625 4.1640625 -0.9375 6.625 C-1.31777344 7.44226563 -1.69804688 8.25953125 -2.08984375 9.1015625 C-2.39019531 9.72804688 -2.69054688 10.35453125 -3 11 C-3.83583327 8.62392051 -4.1842383 7.45550373 -3.22265625 5.078125 C-1.61132812 2.5390625 -1.61132812 2.5390625 0 0 Z " fill="#70A896" transform="translate(42,117)"/>
<path d="M0 0 C0.33 0 0.66 0 1 0 C2.28571429 8.42857143 2.28571429 8.42857143 1 13 C0.34 12.67 -0.32 12.34 -1 12 C-0.67 8.04 -0.34 4.08 0 0 Z " fill="#7CAB9D" transform="translate(139,15)"/>
<path d="" fill="#FFFFFF" transform="translate(0,0)"/>
<path d="" fill="#FFFFFF" transform="translate(0,0)"/>
<path d="" fill="#FFFFFF" transform="translate(0,0)"/>
<path d="" fill="#FFFFFF" transform="translate(0,0)"/>
</svg>
